<svg class="animated" id="freepik_stories-location-tracking" xmlns="http://www.w3.org/2000/svg" viewBox="0 0 500 500" version="1.1" xmlns:xlink="http://www.w3.org/1999/xlink" xmlns:svgjs="http://svgjs.com/svgjs"><style>svg#freepik_stories-location-tracking:not(.animated) .animable {opacity: 0;}svg#freepik_stories-location-tracking.animated #freepik--character-2--inject-277 {animation: 0.6s 1 forwards cubic-bezier(.36,-0.01,.5,1.38) slideDown,1.5s Infinite  linear floating;animation-delay: 0.0s,0.6s;}svg#freepik_stories-location-tracking.animated #freepik--character-1--inject-277 {animation: 0.6s 1 forwards cubic-bezier(.36,-0.01,.5,1.38) slideDown,1.5s Infinite  linear floating;animation-delay: 0s,0.6s;}            @keyframes slideDown {                0% {                    opacity: 0;                    transform: translateY(-30px);                }                100% {                    opacity: 1;                    transform: translateY(0);                }            }                    @keyframes floating {                0% {                    opacity: 1;                    transform: translateY(0px);                }                50% {                    transform: translateY(-10px);                }                100% {                    opacity: 1;                    transform: translateY(0px);                }            }        </style><g id="freepik--background-complete--inject-277" class="animable" style="transform-origin: 250.585px 223.13px;"><path d="M410.91,312.92l13.35-.27,6.58-.12c2.19,0,4.36,0,6.55,0l-.45.44-.05-11.18.5.49-13.24-.06c-4.42,0-8.83-.11-13.24-.16l.27-.27c0,1.83-.09,3.67-.13,5.53Zm0,0-.15-5.53c0-1.87-.11-3.76-.13-5.65v-.27h.28c4.41,0,8.82-.16,13.24-.16l13.24-.06h.5v.51l-.06,11.18v.45h-.44c-2.24,0-4.47,0-6.7-.05L424,313.2Z" style="fill: rgb(235, 235, 235); transform-origin: 424.26px 307.32px;" id="elftqppqj2k3c" class="animable"></path><path d="M425.68,327l13.35-.27,6.58-.12c2.19,0,4.37,0,6.55-.05l-.45.44,0-11.18.5.49-13.24-.06c-4.42,0-8.83-.11-13.24-.16l.27-.27c0,1.83-.09,3.67-.13,5.53Zm0,0-.14-5.53c-.05-1.87-.12-3.76-.14-5.65v-.27h.28c4.41-.05,8.82-.16,13.24-.16l13.24-.06h.5v.51L452.6,327v.45h-.44c-2.23,0-4.47,0-6.7-.05l-6.66-.12Z" style="fill: rgb(235, 235, 235); transform-origin: 439.03px 321.39px;" id="elw5dchd6fdw" class="animable"></path><g id="elb17sskcq629"><rect x="396.08" y="315.84" width="26.48" height="11.19" style="fill: rgb(235, 235, 235); transform-origin: 409.32px 321.435px; transform: rotate(180deg);" class="animable"></rect></g><path d="M47.84,382.73l13.32-.27,6.56-.12c2.18,0,4.35,0,6.52,0l-.44.44-.06-11.15.5.5L61,372c-4.4,0-8.8-.12-13.2-.17l.27-.27c0,1.82-.08,3.66-.13,5.52Zm0,0-.14-5.51c-.05-1.87-.11-3.75-.13-5.64v-.27h.27c4.4-.06,8.8-.16,13.2-.17l13.2-.06h.5v.5l0,11.15v.45h-.44c-2.22,0-4.45,0-6.67-.05L60.93,383Z" style="fill: rgb(235, 235, 235); transform-origin: 61.155px 377.13px;" id="elb5wiupgzhq" class="animable"></path><g id="elyzfcj8lrbng"><rect x="62.57" y="385.65" width="26.4" height="11.16" style="fill: rgb(235, 235, 235); transform-origin: 75.77px 391.23px; transform: rotate(180deg);" class="animable"></rect></g><path d="M116.45,157.86l13.36-.28,6.58-.11c2.18-.05,4.36,0,6.54-.05l-.44.44-.06-11.19.5.5-13.24-.06c-4.41,0-8.83-.11-13.24-.17l.27-.27c0,1.83-.08,3.68-.13,5.54Zm0,0-.14-5.53c0-1.87-.11-3.76-.13-5.66v-.27h.27c4.41-.05,8.83-.16,13.24-.16l13.24-.07h.5v.5l-.05,11.19v.45h-.44c-2.23,0-4.47,0-6.69-.06l-6.66-.11Z" style="fill: rgb(235, 235, 235); transform-origin: 129.805px 152.24px;" id="elygnx5zxhtk" class="animable"></path><g id="el75vnzz40yqw"><rect x="62.49" y="49.95" width="26.48" height="11.19" style="fill: rgb(235, 235, 235); transform-origin: 75.73px 55.545px; transform: rotate(180deg);" class="animable"></rect></g><path d="M47.72,75.25,61.07,75l6.58-.11c2.19,0,4.36,0,6.55,0l-.45.44,0-11.19.5.5L61,64.5c-4.42,0-8.83-.11-13.24-.17l.27-.27c0,1.83-.09,3.67-.13,5.54Zm0,0-.15-5.53c0-1.87-.11-3.76-.13-5.66v-.27h.28c4.41,0,8.82-.16,13.24-.17l13.24-.06h.5v.5l-.06,11.19v.45H74.2c-2.24,0-4.47,0-6.7-.06l-6.66-.11Z" style="fill: rgb(235, 235, 235); transform-origin: 61.07px 69.63px;" id="el1leko4lkxd8" class="animable"></path><path d="M410.91,61.14l13.35-.28,6.58-.11c2.19,0,4.36,0,6.55,0l-.45.44L436.89,50l.5.5-13.24-.06c-4.42,0-8.83-.11-13.24-.17l.27-.27c0,1.83-.09,3.67-.13,5.54Zm0,0-.15-5.53c0-1.87-.11-3.76-.13-5.66v-.27h.28c4.41,0,8.82-.16,13.24-.17l13.24-.06h.5V50l-.06,11.19v.45h-.44c-2.24,0-4.47,0-6.7-.06L424,61.42Z" style="fill: rgb(235, 235, 235); transform-origin: 424.26px 55.545px;" id="elopfm0zw8n3" class="animable"></path><g id="elkr7q9nqs3d"><rect x="369.05" y="189.88" width="26.48" height="11.19" style="fill: rgb(235, 235, 235); transform-origin: 382.29px 195.475px; transform: rotate(180deg);" class="animable"></rect></g><g id="elu24bqy3i0ps"><rect x="309.66" y="49.95" width="144.07" height="190.35" style="fill: rgb(235, 235, 235); transform-origin: 381.695px 145.125px; transform: rotate(180deg);" class="animable"></rect></g><g id="el5o7zswx8a42"><rect x="384.58" y="57.58" width="62.39" height="84.67" style="fill: rgb(255, 255, 255); transform-origin: 415.775px 99.915px; transform: rotate(180deg);" class="animable"></rect></g><g id="elzu1ri4xog5e"><rect x="316.43" y="57.58" width="62.39" height="84.67" style="fill: rgb(255, 255, 255); transform-origin: 347.625px 99.915px; transform: rotate(180deg);" class="animable"></rect></g><g id="el4gdfs215bfu"><rect x="384.58" y="148.01" width="62.39" height="84.67" style="fill: rgb(255, 255, 255); transform-origin: 415.775px 190.345px; transform: rotate(180deg);" class="animable"></rect></g><g id="eluu9vrjqp17"><rect x="316.43" y="148.01" width="62.39" height="84.67" style="fill: rgb(255, 255, 255); transform-origin: 347.625px 190.345px; transform: rotate(180deg);" class="animable"></rect></g><polygon points="357.8 49.95 309.66 49.95 309.66 322.27 337.52 322.27 318.08 183.7 357.8 49.95" style="fill: rgb(219, 219, 219); transform-origin: 333.73px 186.11px;" id="eldlowxazq8ah" class="animable"></polygon><polygon points="349.46 57.31 341.85 88.97 334.09 120.59 318.56 183.82 318.57 183.65 325.75 249.73 329.33 282.77 332.75 315.83 328.84 282.83 325.08 249.81 317.58 183.76 317.57 183.67 317.59 183.58 333.45 120.43 341.38 88.85 349.46 57.31" style="fill: rgb(235, 235, 235); transform-origin: 333.515px 186.57px;" id="el1xa0eoyvt00i" class="animable"></polygon><polygon points="312.53 62.9 312.77 90.21 312.91 117.52 313.03 172.14 312.91 226.76 312.77 254.07 312.53 281.38 312.28 254.07 312.14 226.76 312.03 172.14 312.14 117.52 312.28 90.21 312.53 62.9" style="fill: rgb(235, 235, 235); transform-origin: 312.53px 172.14px;" id="elu6nj50bm77" class="animable"></polygon><polygon points="321.52 68.02 320.05 97.05 318.48 126.07 315.19 184.11 315.19 184.07 316.79 248.75 317.49 281.08 318.08 313.43 316.98 281.1 315.99 248.77 314.21 184.1 314.21 184.07 314.21 184.06 317.74 126.03 319.59 97.02 321.52 68.02" style="fill: rgb(235, 235, 235); transform-origin: 317.865px 190.725px;" id="elx5rispnkrx" class="animable"></polygon><path d="M327.79,309.24l-3.17-31.33-3.07-31.34c-1.95-20.9-4-41.8-5.87-62.71v-.13l8.94-48.79,4.54-24.39,4.61-24.37-4.2,24.44-4.27,24.44-8.68,48.84v-.12c2,20.89,3.84,41.81,5.77,62.71l2.75,31.37Z" style="fill: rgb(235, 235, 235); transform-origin: 324.725px 197.71px;" id="eldxkw8xmrwa" class="animable"></path><g id="el6g4etufzt3"><rect x="309.66" y="181.42" width="10.87" height="6.35" style="fill: rgb(219, 219, 219); transform-origin: 315.095px 184.595px; transform: rotate(180deg);" class="animable"></rect></g><polygon points="405.48 49.95 453.62 49.95 453.62 322.27 425.76 322.27 445.21 183.7 405.48 49.95" style="fill: rgb(219, 219, 219); transform-origin: 429.55px 186.11px;" id="el3o3kicqz2yf" class="animable"></polygon><polygon points="413.82 57.31 421.9 88.85 429.83 120.43 445.69 183.58 445.71 183.67 445.7 183.76 438.2 249.81 434.44 282.83 430.53 315.83 433.95 282.77 437.54 249.73 444.71 183.65 444.72 183.82 429.19 120.59 421.43 88.97 413.82 57.31" style="fill: rgb(235, 235, 235); transform-origin: 429.765px 186.57px;" id="elc61414axu6c" class="animable"></polygon><polygon points="450.75 62.9 451 90.21 451.14 117.52 451.25 172.14 451.14 226.76 451 254.07 450.75 281.38 450.51 254.07 450.37 226.76 450.26 172.14 450.37 117.52 450.51 90.21 450.75 62.9" style="fill: rgb(235, 235, 235); transform-origin: 450.755px 172.14px;" id="ely2otu3su75" class="animable"></polygon><polygon points="441.76 68.02 443.7 97.02 445.54 126.03 449.07 184.06 449.07 184.07 449.07 184.1 447.29 248.77 446.3 281.1 445.21 313.43 445.8 281.08 446.49 248.75 448.09 184.07 448.09 184.11 444.8 126.07 443.24 97.05 441.76 68.02" style="fill: rgb(235, 235, 235); transform-origin: 445.415px 190.725px;" id="elz752w1ft5ya" class="animable"></polygon><path d="M435.49,309.24l2.65-31.38,2.76-31.37c1.92-20.9,3.76-41.82,5.76-62.71v.12L438,135.06l-4.27-24.44-4.2-24.44,4.62,24.37,4.54,24.39,8.93,48.79v.13c-1.88,20.91-3.92,41.81-5.88,62.71l-3.06,31.34Z" style="fill: rgb(235, 235, 235); transform-origin: 438.575px 197.71px;" id="elx0mb0l0lp0g" class="animable"></path><rect x="442.75" y="181.42" width="10.87" height="6.35" style="fill: rgb(219, 219, 219); transform-origin: 448.185px 184.595px;" id="el2ob7s86flfe" class="animable"></rect><rect x="56.42" y="75.53" width="56.46" height="68.49" style="fill: rgb(235, 235, 235); transform-origin: 84.65px 109.775px;" id="elmqb1t7thep" class="animable"></rect><rect x="62.87" y="81.78" width="43.56" height="55.99" style="fill: rgb(255, 255, 255); transform-origin: 84.65px 109.775px;" id="elrcbavykhpfk" class="animable"></rect><rect x="62.87" y="81.78" width="1.7" height="55.99" style="fill: rgb(219, 219, 219); transform-origin: 63.72px 109.775px;" id="eldxe9azvfedp" class="animable"></rect><rect x="112.88" y="75.53" width="1.7" height="68.49" style="fill: rgb(219, 219, 219); transform-origin: 113.73px 109.775px;" id="elas7mg1xk9m6" class="animable"></rect><rect x="77.47" y="89.5" width="10.27" height="30.6" style="fill: rgb(219, 219, 219); transform-origin: 82.605px 104.8px;" id="eljk1s22t8kb" class="animable"></rect><path d="M100.87,125.82H72.49v-16h28.38Zm-27.38-1H99.87v-14H73.49Z" style="fill: rgb(235, 235, 235); transform-origin: 86.68px 117.82px;" id="el294nra1nl1d" class="animable"></path><rect x="108.4" y="160.63" width="56.46" height="68.49" style="fill: rgb(235, 235, 235); transform-origin: 136.63px 194.875px;" id="elcd8pkzfn6w" class="animable"></rect><rect x="114.85" y="166.88" width="43.56" height="55.99" style="fill: rgb(255, 255, 255); transform-origin: 136.63px 194.875px;" id="elnkq7duwbhnf" class="animable"></rect><rect x="114.85" y="166.88" width="1.7" height="55.99" style="fill: rgb(219, 219, 219); transform-origin: 115.7px 194.875px;" id="elsn4l2p7ty5p" class="animable"></rect><rect x="164.86" y="160.63" width="1.7" height="68.49" style="fill: rgb(219, 219, 219); transform-origin: 165.71px 194.875px;" id="elm2nmrd56y7" class="animable"></rect><rect x="132.41" y="181.36" width="8.8" height="22.25" style="fill: rgb(235, 235, 235); transform-origin: 136.81px 192.485px;" id="elqdvgn54uo1" class="animable"></rect><path d="M151,210.71H126.34V194.38H151Zm-23.64-1H150V195.38H127.34Z" style="fill: rgb(219, 219, 219); transform-origin: 138.67px 202.545px;" id="elgxp0hdgw8ys" class="animable"></path></g><g id="freepik--Shadow--inject-277" class="animable" style="transform-origin: 138.32px 462.36px;"><ellipse cx="138.32" cy="462.36" rx="96.78" ry="9.27" style="fill: rgb(235, 235, 235); transform-origin: 138.32px 462.36px;" id="elx8qbxlvy3dc" class="animable"></ellipse></g><g id="freepik--Floor--inject-277" class="animable" style="transform-origin: 250px 441.39px;"><polygon points="44.45 441.39 95.84 441.15 147.23 441.06 250 440.89 352.77 441.06 404.16 441.15 455.55 441.39 404.16 441.64 352.77 441.73 250 441.89 147.23 441.73 95.84 441.64 44.45 441.39" style="fill: rgb(38, 50, 56); transform-origin: 250px 441.39px;" id="eltchfcgzxx3" class="animable"></polygon></g><g id="freepik--Plant--inject-277" class="animable" style="transform-origin: 405.301px 356.941px;"><path d="M407.61,352.12s-9.13-14-29.58-11.29c-19.43,2.59-31.52,36.63-12.69,42.63s18.49-26.6,26-31.42C396.87,348.51,404.18,350.07,407.61,352.12Z" style="fill: rgb(88, 221, 127); transform-origin: 381.765px 362.338px;" id="eluocug7ekk2q" class="animable"></path><path d="M360.77,358.41a40.4,40.4,0,0,1,4.42-2.77,18.17,18.17,0,0,1,4.61-1.77,25.31,25.31,0,0,1,9.43-7.36l-.59-.09a31,31,0,0,0-3.19-.27,17.87,17.87,0,0,0-6.32,1,.09.09,0,1,1-.06-.18,28,28,0,0,1,6.34-1.27,18.41,18.41,0,0,1,3.15,0c.56.06,1.12.15,1.67.26l.32.06a27.23,27.23,0,0,1,6-1.58l-.54-.2a27.29,27.29,0,0,0-2.92-.77,23.25,23.25,0,0,0-6-.47c-.12,0-.14-.19,0-.2a38.61,38.61,0,0,1,6.08.33,25.5,25.5,0,0,1,5,1.13,28.34,28.34,0,0,1,3.69-.07c7,.37,14.36,3.7,18.11,9.84s3.87,13.88,4,20.88a154.67,154.67,0,0,1-2,29.16c-.1.57-.89.39-.85-.16.51-8.25,1-16.5,1-24.77,0-3.83-.05-7.68-.32-11.5a34,34,0,0,0-1.87-9.62,17.3,17.3,0,0,0-6.07-7.9,22.94,22.94,0,0,0-9.29-3.85,26,26,0,0,0-9,0,6.29,6.29,0,0,1-.12,1.78,9.44,9.44,0,0,1-.65,2.14,11.55,11.55,0,0,1-1,1.86c-.43.66-1,1.23-1.43,1.84-.08.1-.23,0-.15-.12a9.15,9.15,0,0,0,1.93-3.8,17.27,17.27,0,0,0,.43-2c.08-.51.08-1,.15-1.54a26.67,26.67,0,0,0-9.17,3.78c-.53.35-1,.71-1.53,1.09a10.14,10.14,0,0,1,1.5,2.25,21.21,21.21,0,0,1,1.48,3.34A27.36,27.36,0,0,1,378,364a.1.1,0,0,1-.2,0,20.12,20.12,0,0,0-1.65-6.81,26.76,26.76,0,0,0-1.49-3.1c-.29-.52-.6-1-.92-1.52-.17-.27-.36-.54-.52-.82a27.86,27.86,0,0,0-6.44,7.45l0,0a13.81,13.81,0,0,1,2,3.59,32.07,32.07,0,0,1,1.49,4.19,66.25,66.25,0,0,1,1.61,8.38c0,.12-.17.14-.19,0a34.07,34.07,0,0,0-2.07-8.31c-.48-1.31-1-2.6-1.55-3.88a35.76,35.76,0,0,1-1.54-3.68,25.94,25.94,0,0,0-3.17,9.05c0,.12-.21.09-.19,0a32.59,32.59,0,0,1,5.85-13.8c-1.28.4-2.55.79-3.79,1.31a20.31,20.31,0,0,0-4.44,2.53C360.78,358.65,360.67,358.48,360.77,358.41Z" style="fill: rgb(38, 50, 56); transform-origin: 387.376px 373.604px;" id="elkm0x5pljww" class="animable"></path><path d="M375.38,360.54c.41,2,1,4,1.34,6.07a23,23,0,0,1,.32,6c0,.05-.09.05-.09,0a57.19,57.19,0,0,0-1.76-12A.1.1,0,1,1,375.38,360.54Z" style="fill: rgb(38, 50, 56); transform-origin: 376.147px 366.561px;" id="elogqusgk5o4p" class="animable"></path><path d="M363.17,354.44A11.06,11.06,0,0,1,366,352.8a19.48,19.48,0,0,1,3.18-.8c.11,0,.14.18,0,.19a12.38,12.38,0,0,0-3.07.94,23.13,23.13,0,0,0-2.87,1.41A.06.06,0,1,1,363.17,354.44Z" style="fill: rgb(38, 50, 56); transform-origin: 366.209px 353.276px;" id="eloueu3lhfzqg" class="animable"></path><path d="M397.72,335.84s-1.92-23.51-19.4-31.13c-14.6-6.37-23,10-12.64,20.08C374,332.91,387.42,329.25,397.72,335.84Z" style="fill: rgb(88, 221, 127); transform-origin: 379.4px 319.559px;" id="ele3otecj84tg" class="animable"></path><path d="M368.92,309.26a74.49,74.49,0,0,1,7.77,3.68,58,58,0,0,1,6,4c-.29-.59-.54-1.22-.84-1.8-.45-.91-.94-1.79-1.48-2.66a25.17,25.17,0,0,0-3.85-4.87c-.09-.09.05-.22.14-.13a38.78,38.78,0,0,1,4.05,4.72,26.91,26.91,0,0,1,1.66,2.66,10.28,10.28,0,0,1,1.17,2.7l.2.15a57.51,57.51,0,0,1,8.35,8.16c-.05-.23-.1-.46-.16-.67-.33-1.15-.68-2.28-1.06-3.42a28.77,28.77,0,0,0-3.16-6.85.1.1,0,0,1,.17-.1,54.89,54.89,0,0,1,3.66,6.69,26.52,26.52,0,0,1,1.21,3.48,14.82,14.82,0,0,1,.57,2.36c.76,1,1.51,1.94,2.21,2.94,7.51,10.69,11.27,23.61,12.18,36.54a111.87,111.87,0,0,1,.19,11.58,73.06,73.06,0,0,1-1,11.63c-.05.24-.43.17-.42-.07.08-3.4.44-6.78.5-10.18a99.41,99.41,0,0,0-.33-10.21,95.31,95.31,0,0,0-3.81-20A71.72,71.72,0,0,0,394,330.78c-.74-.14-1.47-.34-2.19-.53s-1.75-.45-2.62-.69a26.59,26.59,0,0,1-4.87-1.79.09.09,0,1,1,.1-.16,15.74,15.74,0,0,0,4.94,1.7c1.37.27,2.79.45,4.16.77a63.76,63.76,0,0,0-4.06-5.35,30,30,0,0,1-9.95-.74,41.59,41.59,0,0,1-5.09-1.58c-1.75-.68-3.41-1.54-5.13-2.27-.13-.05,0-.24.07-.17a29.36,29.36,0,0,0,10.09,3.3,62,62,0,0,0,9.43.78c-1.24-1.43-2.53-2.81-3.9-4.12-4.59-4.37-10-8.39-16.09-10.48C368.74,309.41,368.8,309.21,368.92,309.26Z" style="fill: rgb(38, 50, 56); transform-origin: 388.386px 348.824px;" id="el51mi2v0qtkc" class="animable"></path><path d="M383.14,309.33a27.68,27.68,0,0,1,2.15,3.14,17.76,17.76,0,0,1,1.54,3.65s-.05.06-.07,0c-.59-1.15-1.08-2.35-1.67-3.49a16.79,16.79,0,0,0-2.09-3.18C382.93,309.37,383.07,309.24,383.14,309.33Z" style="fill: rgb(38, 50, 56); transform-origin: 384.905px 312.723px;" id="el1pbbhfhaxlj" class="animable"></path><path d="M366.89,317.16a17.84,17.84,0,0,0,3.58,1.5,33.32,33.32,0,0,0,3.65,1c.06,0,.05.11,0,.1a17.36,17.36,0,0,1-3.78-.83,30.3,30.3,0,0,1-3.54-1.58C366.68,317.27,366.78,317.1,366.89,317.16Z" style="fill: rgb(38, 50, 56); transform-origin: 370.453px 318.454px;" id="elcf786gobgqi" class="animable"></path><path d="M410.35,332.38c.11,1,2.64-8.54,17.42-17,13.43-7.7,29.45-27.74,16.29-40.39C433.43,264.75,405.44,287,410.35,332.38Z" style="fill: rgb(88, 221, 127); transform-origin: 429.372px 302.492px;" id="el20q3rw41df" class="animable"></path><path d="M400.17,387.15a261.92,261.92,0,0,1,2.35-29.73,134.27,134.27,0,0,1,6.24-26.6c1.1-3.11,2.36-6.16,3.72-9.18a21.6,21.6,0,0,1,.06-3.51c.08-1.51.21-3,.35-4.51s.29-3,.47-4.5.5-3,.56-4.48c0-.14.22-.11.19,0a31.52,31.52,0,0,0-.53,4.76c-.12,1.45-.2,2.9-.25,4.35s0,2.91,0,4.37c0,.52,0,1.08,0,1.64,1.39-2.94,2.88-5.83,4.5-8.65-1-6.13.3-12.53,1.55-18.52,0-.12.21-.07.18.05a52.24,52.24,0,0,0-1,9.5c-.06,2.52.06,5,.07,7.55.35-.6.71-1.21,1.07-1.8,1.92-3.13,4-6.2,6.14-9.18a14.17,14.17,0,0,1,.14-4.36,35.49,35.49,0,0,1,1.07-4.78c.48-1.56,1-3.1,1.64-4.61s1.49-3,2.11-4.59c.05-.13.25,0,.17.08a23,23,0,0,0-1.85,4.64,45.07,45.07,0,0,0-1.21,4.6c-.31,1.55-.56,3.11-.78,4.69-.15,1-.24,2.11-.42,3.16a114.23,114.23,0,0,1,10.35-12c.09-.09.22.05.13.14a136,136,0,0,0-15,20.44c-.17.27-.32.55-.48.83.82-.52,1.75-.92,2.52-1.35,1.43-.79,2.86-1.58,4.31-2.36l4.18-2.29c.72-.4,1.43-.82,2.16-1.19a17,17,0,0,0,2.5-1.39c.11-.08.23.09.11.16-1.42.78-2.68,1.94-4.05,2.82s-2.78,1.73-4.22,2.53c-2.63,1.46-5.48,2.52-8.07,4-1.79,3.14-3.44,6.37-5,9.65,1.57-1,3.17-2,4.8-2.87,1.05-.59,2.1-1.17,3.16-1.73a15.55,15.55,0,0,0,3-1.8c.09-.08.22.06.13.14a27.62,27.62,0,0,1-5.68,3.95c-1.9,1.11-3.82,2.18-5.79,3.15-1.58,3.46-3,7-4.28,10.58-6.22,17.62-8.51,36.32-9.6,54.89-.32,5.54-.49,11.07-.56,16.62s.22,11.07.21,16.6c0,.17-.27.21-.29,0-.67-4.91-.78-9.91-1-14.85S400.06,392.18,400.17,387.15Z" style="fill: rgb(38, 50, 56); transform-origin: 418.813px 348.759px;" id="elzqbedkh7h4m" class="animable"></path><path d="M427,307.39a71.08,71.08,0,0,0,7.85-4.06,83.79,83.79,0,0,0,7.46-4.73s.09,0,.05.06a60.88,60.88,0,0,1-7.16,5,70.16,70.16,0,0,1-8.11,3.89C427,307.61,426.91,307.44,427,307.39Z" style="fill: rgb(38, 50, 56); transform-origin: 434.666px 303.081px;" id="elx44vedijnu" class="animable"></path><path d="M422.75,287.48c.21-.86.49-1.71.77-2.54a.08.08,0,0,1,0-.1c.18-.48.38-.95.57-1.42l.07-.17a2.33,2.33,0,0,0,.11-.28s.06,0,.05,0-.09.33-.14.49a2.76,2.76,0,0,1-.08.27,68.85,68.85,0,0,0-2.19,10c0,.1-.18.11-.18,0A33.7,33.7,0,0,1,422.75,287.48Z" style="fill: rgb(38, 50, 56); transform-origin: 423.026px 288.389px;" id="els6w09jcfhj8" class="animable"></path><path d="M407.69,357.84c5.15-16,16.79-25.5,31.76-23.3S459.5,356.44,449.5,363s-22.83-6.66-28.92-8.88S407.69,357.84,407.69,357.84Z" style="fill: rgb(88, 221, 127); transform-origin: 431.185px 349.517px;" id="elxtn6moklz6m" class="animable"></path><path d="M406.32,398.69c-.22-1.81-.4-3.62-.6-5.44-.38-3.62-.78-7.24-1.16-10.86-.69-6.62-.9-13.19,1-19.65a29.93,29.93,0,0,1,9.65-15,24.65,24.65,0,0,1,5.7-3.49,14.38,14.38,0,0,1,6.53-4.9,29.22,29.22,0,0,1,10.07-1.69c.12,0,.14.18,0,.19a24.47,24.47,0,0,0-9.46,2,19.76,19.76,0,0,0-3.64,2.05,17.56,17.56,0,0,0-2,1.73,20.84,20.84,0,0,1,8.79-1.17,19.1,19.1,0,0,1,3.18.57,9,9,0,0,1,2.37-.54,14,14,0,0,1,3.17,0,23.72,23.72,0,0,1,6.28,1.73.1.1,0,0,1-.08.18,22.14,22.14,0,0,0-6.08-1.35,19,19,0,0,0-3,0,13.14,13.14,0,0,0-1.65.25,19.26,19.26,0,0,1,10.61,7.92c.06.11-.09.22-.16.12a17.61,17.61,0,0,0-13.18-7.8c-.33,0-.66,0-1-.05A13,13,0,0,1,432,345c.2.71.43,1.42.68,2.12a36.17,36.17,0,0,0,1.79,4.21,34,34,0,0,0,2.34,4,20.75,20.75,0,0,0,3,3.76c.1.09-.05.23-.14.13-1.05-1.23-2.24-2.33-3.22-3.62a31.1,31.1,0,0,1-2.55-3.9,29.64,29.64,0,0,1-1.92-4.31c-.27-.78-.51-1.58-.72-2.38a5.65,5.65,0,0,1-.3-1.47,19.67,19.67,0,0,0-5.12.62c1.15,3.48,2.36,7.1,4.81,9.92.08.09-.08.22-.16.11a41,41,0,0,1-3.19-4.75,19.37,19.37,0,0,1-2-5.14,23.54,23.54,0,0,0-8,4,28,28,0,0,0-9.47,13.88,46.56,46.56,0,0,0-1.65,18.19c.61,7.72,1.61,15.43,1.93,23.17,0,.5-.74.78-.92.23A27.28,27.28,0,0,1,406.32,398.69Z" style="fill: rgb(38, 50, 56); transform-origin: 425.155px 370.865px;" id="el8z9gxf6u1xb" class="animable"></path><path d="M416,346.43a8.34,8.34,0,0,1,1.44-1.76,21.67,21.67,0,0,1,1.65-1.67,13.65,13.65,0,0,1,3.86-2.51c.11-.05.19.13.07.18a10.92,10.92,0,0,0-3.79,2.58q-.82.81-1.56,1.68a11,11,0,0,1-1.47,1.65C416.14,346.66,416,346.55,416,346.43Z" style="fill: rgb(38, 50, 56); transform-origin: 419.54px 343.544px;" id="elt77865af2n" class="animable"></path><path d="M440.05,348.54a43.43,43.43,0,0,1,4,3.94,27.13,27.13,0,0,1,3.19,4.57c0,.05,0,.09-.08.05a60.13,60.13,0,0,0-7.19-8.41C439.84,348.61,440,348.46,440.05,348.54Z" style="fill: rgb(38, 50, 56); transform-origin: 443.58px 352.817px;" id="elx44jdvs44u" class="animable"></path><path d="M424.18,349.29a10.73,10.73,0,0,0,1.21,2.59,17.44,17.44,0,0,0,1.73,2.2c0,.05,0,.11-.08.08a9.88,9.88,0,0,1-3-4.8C424,349.25,424.14,349.17,424.18,349.29Z" style="fill: rgb(38, 50, 56); transform-origin: 425.576px 351.699px;" id="ela50w1vdo2zn" class="animable"></path><polygon points="384.56 390.72 385.61 403.22 388.84 441.35 423.43 441.35 426.65 403.22 427.71 390.72 384.56 390.72" style="fill: rgb(69, 90, 100); transform-origin: 406.135px 416.035px;" id="elehvgzpg6hfv" class="animable"></polygon><polygon points="384.56 390.72 385.61 403.22 426.65 403.22 427.71 390.72 384.56 390.72" style="fill: rgb(38, 50, 56); transform-origin: 406.135px 396.97px;" id="ely71u1888gre" class="animable"></polygon><g id="eljvpr01i9mm8"><rect x="381.16" y="385.7" width="49.94" height="11.99" style="fill: rgb(69, 90, 100); transform-origin: 406.13px 391.695px; transform: rotate(180deg);" class="animable"></rect></g></g><g id="freepik--Device--inject-277" class="animable" style="transform-origin: 250px 249.555px;"><path d="M334.51,58.11h-169a17.26,17.26,0,0,0-17.11,17.42v348A17.27,17.27,0,0,0,165.47,441h169a17.28,17.28,0,0,0,17.13-17.42v-348A17.27,17.27,0,0,0,334.51,58.11Zm6.43,354.67c0,9.16-6.86,16.57-15.32,16.57H174.39c-8.49,0-15.34-7.41-15.34-16.57V88.72c0-18.66,6.85-19.57,15.34-19.57h30.29c1.76,0,3.2,2,3.2,4.48V74.7c0,5.81,3.18,5.83,7.09,5.83h70c4,0,7.09,0,7.09-5.83V73.63c0-2.48,1.42-4.48,3.22-4.48h30.29c8.46,0,15.32,2.48,15.32,19.57Z" style="fill: rgb(38, 50, 56); transform-origin: 250px 249.555px;" id="elmehqukuud9a" class="animable"></path><path d="M259.55,73.27H240.44a1.18,1.18,0,0,1-1.18-1.18h0a1.18,1.18,0,0,1,1.18-1.18h19.11a1.18,1.18,0,0,1,1.18,1.18h0A1.18,1.18,0,0,1,259.55,73.27Z" style="fill: rgb(255, 255, 255); transform-origin: 249.995px 72.09px;" id="elqgdknhuhh2r" class="animable"></path><path d="M340.94,88.72V412.78c0,9.16-6.86,16.57-15.32,16.57H174.39c-8.49,0-15.34-7.41-15.34-16.57V88.72c0-18.66,6.85-19.57,15.34-19.57h30.29c1.76,0,3.2,2,3.2,4.48V74.7c0,5.81,3.18,5.83,7.09,5.83h70c4,0,7.09,0,7.09-5.83V73.63c0-2.48,1.42-4.48,3.22-4.48h30.29C334.08,69.15,340.94,71.63,340.94,88.72Z" style="fill: rgb(255, 255, 255); transform-origin: 249.995px 249.25px;" id="elokkviy7t1tl" class="animable"></path><path d="M335.84,72h-43.5c.47-1.65,1.62-2.82,3-2.82h30.31C329.55,69.14,333.13,69.68,335.84,72Z" style="fill: rgb(219, 219, 219); transform-origin: 314.09px 70.589px;" id="el497j5rtu6vc" class="animable"></path><path d="M159.05,396.81v4.31h15.06v-4.31ZM340.94,130,292,181.86H269.48V139h8.95v-4.34H265.14v47.19H240.73V80.53h-8.66v30.36h-73v8.66h73v62.31H161.33v17h-2.28v4.34h2.28v64.39l13,29.78H159.05v8.66h19.09l10.19,23.29a30.82,30.82,0,0,0,9.79,59h0L219.31,423l-6.39,6.39h20.46l-25.54-41.72a30.84,30.84,0,0,0,21.62-40.94l60.44-28.75h51v-8.65H316.73L266,254.17h74.92v-4.33H262l-54.56-59.32h88.24l29.82-31.62,15.4,15.4V162.06l-9.44-9.45,9.44-10ZM200.62,379.84a22.2,22.2,0,1,1,22.19-22.2A22.22,22.22,0,0,1,200.62,379.84ZM305,309.29H288L225.27,339.1a30.89,30.89,0,0,0-24.65-12.3,32.75,32.75,0,0,0-3.85.24L170,265.79V190.52H195.7Zm6.44,120.06h6.13l23.4-23.41v-6.13Z" style="fill: rgb(235, 235, 235); transform-origin: 250.01px 254.96px;" id="el5uculrktkyb" class="animable"></path><rect x="177.41" y="197.08" width="12.59" height="12.59" style="fill: rgb(219, 219, 219); transform-origin: 183.705px 203.375px;" id="eluwc0bbceknq" class="animable"></rect><polygon points="308.19 245.34 308.19 221.04 299.35 221.04 299.35 210.88 283.78 210.88 283.78 245.34 308.19 245.34" style="fill: rgb(219, 219, 219); transform-origin: 295.985px 228.11px;" id="eljygforyk2x" class="animable"></polygon><polygon points="265.02 80.53 265.02 104.97 251.84 104.97 251.84 90.09 244.71 90.09 244.71 80.53 265.02 80.53" style="fill: rgb(219, 219, 219); transform-origin: 254.865px 92.75px;" id="elkry0g30n3po" class="animable"></polygon><path d="M340.94,88.71v8.43h-11V75.93h8.86C340.16,78.83,340.94,82.94,340.94,88.71Z" style="fill: rgb(219, 219, 219); transform-origin: 335.44px 86.535px;" id="elysruzwjwdvc" class="animable"></path><polygon points="272.89 178.19 272.89 160.12 306.75 160.12 288.46 178.41 272.89 178.19" style="fill: rgb(219, 219, 219); transform-origin: 289.82px 169.265px;" id="el16pcb1588w3j" class="animable"></polygon><rect x="244.72" y="161.4" width="17.01" height="17.01" style="fill: rgb(219, 219, 219); transform-origin: 253.225px 169.905px;" id="elldqd0pyxu2" class="animable"></rect><rect x="207.51" y="122.94" width="20.49" height="18.85" style="fill: rgb(219, 219, 219); transform-origin: 217.755px 132.365px;" id="elbepkappgxzk" class="animable"></rect><polygon points="228.01 145.49 228.01 178.41 202.94 178.41 186.96 162.43 186.96 145.49 228.01 145.49" style="fill: rgb(219, 219, 219); transform-origin: 207.485px 161.95px;" id="ellf9b18750sg" class="animable"></polygon><polygon points="182.44 166.06 195.03 178.65 161.43 178.65 161.43 166.06 182.44 166.06" style="fill: rgb(219, 219, 219); transform-origin: 178.23px 172.355px;" id="elw8j07lr6cq" class="animable"></polygon><polygon points="180.64 325.13 159.05 325.13 159.05 309.97 174.53 309.97 180.64 325.13" style="fill: rgb(219, 219, 219); transform-origin: 169.845px 317.55px;" id="elcgtbvhms13i" class="animable"></polygon><path d="M174.76,383.56v7.28H159.05V358.46h4.29A46.77,46.77,0,0,0,174.76,383.56Z" style="fill: rgb(219, 219, 219); transform-origin: 166.905px 374.65px;" id="elvc85mzc4gyk" class="animable"></path><path d="M250,320.66l-13.17-28.45h-16l-27.4,12.71,7.16,15.63h.06a37,37,0,0,1,26,10.64Z" style="fill: rgb(219, 219, 219); transform-origin: 221.715px 311.7px;" id="elh18y7aba5nl" class="animable"></path><polygon points="340.94 285.23 340.94 304.12 320.34 304.12 302.96 285.23 340.94 285.23" style="fill: rgb(219, 219, 219); transform-origin: 321.95px 294.675px;" id="elt4afzwnhbw" class="animable"></polygon><path d="M211.55,421.37l-7.54,8H174.38a14.7,14.7,0,0,1-3.27-.38v-9h12.82V400.15l9.65-8.12Z" style="fill: rgb(219, 219, 219); transform-origin: 191.33px 410.7px;" id="elelk3dxwo5qr" class="animable"></path><path d="M272.56,388l-26-27.1-10,7.79a37.66,37.66,0,0,1-18.43,22.2l21.73,35.52Z" style="fill: rgb(219, 219, 219); transform-origin: 245.345px 393.655px;" id="eldiapsifvpep" class="animable"></path><polygon points="244.25 348.99 289.9 326.42 312.67 326.42 312.67 366.12 277.17 383.65 244.25 348.99" style="fill: rgb(219, 219, 219); transform-origin: 278.46px 355.035px;" id="el3xs7gy5tdln" class="animable"></polygon><path d="M340.92,413.51c-.31,8-5.88,14.52-13.05,15.66h-2.61Z" style="fill: rgb(219, 219, 219); transform-origin: 333.09px 421.34px;" id="elyccaauupdz" class="animable"></path><polygon points="177.41 214.92 177.41 264.81 191.33 298.87 216.73 286.28 275.98 286.28 209.54 214.92 177.41 214.92" style="fill: rgb(88, 221, 127); transform-origin: 226.695px 256.895px;" id="el1v23st3myb1" class="animable"></polygon><polygon points="321.9 143.56 272.89 143.56 272.89 155.84 310.32 155.84 321.9 143.56" style="fill: rgb(219, 219, 219); transform-origin: 297.395px 149.7px;" id="elbzjb4g1l5g8" class="animable"></polygon><polygon points="167.8 293.31 159.05 293.31 159.05 273.04 167.8 293.31" style="fill: rgb(219, 219, 219); transform-origin: 163.425px 283.175px;" id="el6ziibjyp8ya" class="animable"></polygon><rect x="318.98" y="326.42" width="21.96" height="25.96" style="fill: rgb(219, 219, 219); transform-origin: 329.96px 339.4px;" id="elalwhssu11sd" class="animable"></rect><rect x="318.98" y="356.43" width="21.96" height="9.11" style="fill: rgb(219, 219, 219); transform-origin: 329.96px 360.985px;" id="elr9oticfa86e" class="animable"></rect><polygon points="313.52 420.56 304.73 429.35 247.02 429.35 277.57 392.04 313.52 420.56" style="fill: rgb(219, 219, 219); transform-origin: 280.27px 410.695px;" id="elun5gdfj4jw" class="animable"></polygon><polygon points="316.67 416.27 331.5 402.04 313.51 386.38 313.51 372.3 281.81 388.45 316.67 416.27" style="fill: rgb(88, 221, 127); transform-origin: 306.655px 394.285px;" id="ely6gjdpvddpe" class="animable"></polygon><polygon points="340.94 369.56 340.94 391.64 335.06 397.17 318.98 383.65 318.98 369.56 340.94 369.56" style="fill: rgb(219, 219, 219); transform-origin: 329.96px 383.365px;" id="elkuh2qlete3" class="animable"></polygon><path d="M164.69,406.07v19.55a17.07,17.07,0,0,1-5.64-12.84v-6.71Z" style="fill: rgb(219, 219, 219); transform-origin: 161.87px 415.845px;" id="el2co49a6ukln" class="animable"></path><rect x="171.11" y="408.12" width="7.64" height="7.64" style="fill: rgb(219, 219, 219); transform-origin: 174.93px 411.94px;" id="elxm6nug9n3gs" class="animable"></rect><path d="M226.69,80.53V105.7H178.23V76.89l8.43-7.75h18c1.75,0,3.19,2,3.19,4.49V74.7c0,5.81,3.19,5.83,7.09,5.83Z" style="fill: rgb(219, 219, 219); transform-origin: 202.46px 87.42px;" id="el1xf6nxps3o7" class="animable"></path><rect x="159.05" y="90.24" width="15.08" height="15.44" style="fill: rgb(219, 219, 219); transform-origin: 166.59px 97.96px;" id="elv3izw82z8qb" class="animable"></rect><path d="M174.13,77.62v8.63h-15a35.82,35.82,0,0,1,1.21-8.63Z" style="fill: rgb(219, 219, 219); transform-origin: 166.63px 81.935px;" id="el6s7zymtbrbg" class="animable"></path><path d="M182.11,69.14l-5.33,5h-15c2.76-4.65,7.38-5,12.61-5Z" style="fill: rgb(219, 219, 219); transform-origin: 171.945px 71.64px;" id="eldrsq8cw5dgf" class="animable"></path><polygon points="278.77 259.41 299.35 281.02 318.98 281.02 318.98 259.41 278.77 259.41" style="fill: rgb(219, 219, 219); transform-origin: 298.875px 270.215px;" id="el0q7jksmub4pc" class="animable"></polygon><rect x="323.06" y="271.09" width="17.88" height="9.94" style="fill: rgb(219, 219, 219); transform-origin: 332px 276.06px;" id="el4ek2v4ydki5" class="animable"></rect><rect x="323.06" y="259.41" width="10.51" height="9.03" style="fill: rgb(219, 219, 219); transform-origin: 328.315px 263.925px;" id="elhwn2khap61b" class="animable"></rect><rect x="336.19" y="259.41" width="4.75" height="9.03" style="fill: rgb(219, 219, 219); transform-origin: 338.565px 263.925px;" id="el71pr4kqifvp" class="animable"></rect><polygon points="243 292.21 275.98 292.21 275.98 307.98 254.89 317.55 243 292.21" style="fill: rgb(219, 219, 219); transform-origin: 259.49px 304.88px;" id="elxz0t9vmctl" class="animable"></polygon><circle cx="200.63" cy="357.77" r="14.8" style="fill: rgb(88, 221, 127); transform-origin: 200.63px 357.77px;" id="el14bevwcrv9c" class="animable"></circle><rect x="159.05" y="122.94" width="7.92" height="11.37" style="fill: rgb(219, 219, 219); transform-origin: 163.01px 128.625px;" id="elrwx1jziar8" class="animable"></rect><polygon points="182.07 161.96 182.07 122.95 169.99 122.95 169.99 154.31 161.43 154.31 161.43 161.96 182.07 161.96" style="fill: rgb(219, 219, 219); transform-origin: 171.75px 142.455px;" id="elekg74teed2u" class="animable"></polygon><rect x="186.96" y="122.94" width="17.11" height="17.8" style="fill: rgb(219, 219, 219); transform-origin: 195.515px 131.84px;" id="eluhgg2ue93th" class="animable"></rect><rect x="159.05" y="136.5" width="7.92" height="14.37" style="fill: rgb(219, 219, 219); transform-origin: 163.01px 143.685px;" id="elh7bl8frohsp" class="animable"></rect><rect x="311.87" y="221.04" width="25.42" height="24.31" style="fill: rgb(219, 219, 219); transform-origin: 324.58px 233.195px;" id="el081c9x90kvpk" class="animable"></rect><polygon points="219.05 194.86 245.57 223.72 278.86 223.72 278.86 194.86 219.05 194.86" style="fill: rgb(219, 219, 219); transform-origin: 248.955px 209.29px;" id="elxducooxs3ng" class="animable"></polygon><polygon points="249.35 227.05 266.18 245.35 278.77 245.35 278.77 227.05 249.35 227.05" style="fill: rgb(219, 219, 219); transform-origin: 264.06px 236.2px;" id="elpmoayysn3c" class="animable"></polygon><rect x="283.78" y="194.86" width="15.56" height="12.05" style="fill: rgb(219, 219, 219); transform-origin: 291.56px 200.885px;" id="el5sw3tyxm6j2" class="animable"></rect><polygon points="337.3 206.41 337.3 179.31 325 166.07 303.56 189.06 303.56 215.35 328.98 215.35 328.98 206.41 337.3 206.41" style="fill: rgb(88, 221, 127); transform-origin: 320.43px 190.71px;" id="eli0xvllho26" class="animable"></polygon><polygon points="340.94 149.37 340.94 156.64 337.43 153.2 340.94 149.37" style="fill: rgb(219, 219, 219); transform-origin: 339.185px 153.005px;" id="elvz3g8wl8zgk" class="animable"></polygon><polygon points="340.94 101.09 340.94 123.44 326.18 139.65 306.75 139.65 306.75 101.09 340.94 101.09" style="fill: rgb(219, 219, 219); transform-origin: 323.845px 120.37px;" id="elt79m79x2x5" class="animable"></polygon><rect x="283.33" y="115.21" width="18.91" height="24.44" style="fill: rgb(88, 221, 127); transform-origin: 292.785px 127.43px;" id="el0rt8hia8bdnc" class="animable"></rect><path d="M326.18,75.93V97.14H302.23v15h-18.9V80.53H285c3.63,0,6.6,0,7-4.6Z" style="fill: rgb(219, 219, 219); transform-origin: 304.755px 94.035px;" id="elc9e0bbfz90k" class="animable"></path><rect x="267.32" y="80.53" width="13.57" height="16.1" style="fill: rgb(219, 219, 219); transform-origin: 274.105px 88.58px;" id="eljw9ackbtnfj" class="animable"></rect><rect x="244.72" y="107.61" width="36.18" height="17.79" style="fill: rgb(219, 219, 219); transform-origin: 262.81px 116.505px;" id="elqluy7m9jtll" class="animable"></rect><rect x="267.32" y="99.2" width="13.58" height="5.77" style="fill: rgb(219, 219, 219); transform-origin: 274.11px 102.085px;" id="elltu3euuu98k" class="animable"></rect><polygon points="261.73 158 251.84 158 244.72 151.24 244.72 131.58 261.73 131.58 261.73 158" style="fill: rgb(219, 219, 219); transform-origin: 253.225px 144.79px;" id="elsesgtre717" class="animable"></polygon><g id="freepik--u5Zjqx--inject-277" class="animable" style="transform-origin: 196.175px 77.325px;"><path d="M199.45,76.43a4,4,0,0,0-.29.29l-.17.16a4,4,0,0,0-5.64,0l-.16-.17-.29-.29h0l0,0,.37-.33a4.46,4.46,0,0,1,.86-.54,4.18,4.18,0,0,1,1.13-.38,5.58,5.58,0,0,1,.57-.08h.5l.38,0a4.51,4.51,0,0,1,1,.25,4.58,4.58,0,0,1,.71.33,4.48,4.48,0,0,1,.67.47l.31.28Z" style="fill: rgb(166, 166, 166); transform-origin: 196.175px 75.985px;" id="elbc1cuaonre" class="animable"></path><path d="M194.27,77.8l-.46-.46a3.31,3.31,0,0,1,1.88-.94,3.26,3.26,0,0,1,2.83.94c-.15.15-.3.31-.46.46a2.61,2.61,0,0,0-1.89-.78A2.65,2.65,0,0,0,194.27,77.8Z" style="fill: rgb(166, 166, 166); transform-origin: 196.165px 77.0806px;" id="elb050tbn2nff" class="animable"></path><path d="M197.6,78.26l-.46.46a1.4,1.4,0,0,0-1-.4,1.36,1.36,0,0,0-1,.41l-.46-.46A2,2,0,0,1,197.6,78.26Z" style="fill: rgb(166, 166, 166); transform-origin: 196.14px 78.1809px;" id="eln0jv9k4uw6f" class="animable"></path><path d="M196.58,79.14a.41.41,0,0,1-.41.42.42.42,0,0,1-.42-.42.41.41,0,0,1,.42-.41A.41.41,0,0,1,196.58,79.14Z" style="fill: rgb(166, 166, 166); transform-origin: 196.165px 79.1449px;" id="elkjhz1oj1r6b" class="animable"></path></g><path d="M170.9,77.31a1.21,1.21,0,1,1,1.21,1.21A1.2,1.2,0,0,1,170.9,77.31Z" style="fill: rgb(166, 166, 166); transform-origin: 172.11px 77.31px;" id="elbdb3ruyghig" class="animable"></path><path d="M174.7,77.31a1.21,1.21,0,1,1,1.21,1.21A1.2,1.2,0,0,1,174.7,77.31Z" style="fill: rgb(166, 166, 166); transform-origin: 175.91px 77.31px;" id="elq5mnwfqacs" class="animable"></path><path d="M178.5,77.31a1.21,1.21,0,1,1,1.2,1.21A1.2,1.2,0,0,1,178.5,77.31Z" style="fill: rgb(166, 166, 166); transform-origin: 179.71px 77.31px;" id="elvgq0kooqy4p" class="animable"></path><path d="M182.3,77.31a1.21,1.21,0,1,1,1.2,1.21A1.2,1.2,0,0,1,182.3,77.31Z" style="fill: rgb(166, 166, 166); transform-origin: 183.51px 77.31px;" id="elwrmqt7dk6r" class="animable"></path><path d="M186.09,77.31a1.21,1.21,0,1,1,1.21,1.21A1.2,1.2,0,0,1,186.09,77.31Z" style="fill: rgb(166, 166, 166); transform-origin: 187.3px 77.31px;" id="elw9uthe1f1jg" class="animable"></path><rect x="317.73" y="75.65" width="9.31" height="4.05" style="fill: rgb(166, 166, 166); transform-origin: 322.385px 77.675px;" id="el0rsquarz9o6n" class="animable"></rect><path d="M327.3,79.94h-9.82V75.4h9.82Zm-9.32-.5h8.82V75.9H318Z" style="fill: rgb(255, 255, 255); transform-origin: 322.39px 77.67px;" id="ellhifcw6344i" class="animable"></path><rect x="318.3" y="76.17" width="6.33" height="3" style="fill: rgb(166, 166, 166); transform-origin: 321.465px 77.67px;" id="elaswdmn1w4v7" class="animable"></rect><rect x="327.3" y="76.45" width="0.87" height="2.43" style="fill: rgb(166, 166, 166); transform-origin: 327.735px 77.665px;" id="elk8oyf8puzuo" class="animable"></rect></g><g id="freepik--Route--inject-277" class="animable" style="transform-origin: 256.19px 257.215px;"><polygon points="258.54 329.32 257.73 327.5 291.35 312.56 312.17 312.56 195.67 185.36 235.53 185.36 235.53 110.48 237.53 110.48 237.53 187.36 200.21 187.36 316.71 314.56 291.78 314.56 258.54 329.32" style="fill: rgb(88, 221, 127); transform-origin: 256.19px 219.9px;" id="elpzgkvwch09" class="animable"></polygon><path d="M243.29,98.69C243,95.31,240.62,92,236.53,92s-6.41,3.36-6.75,6.74c-.51,5.21,3,9.94,6.75,14.25C240.29,108.63,243.81,103.9,243.29,98.69Zm-6.76,3.75a3.7,3.7,0,1,1,3.71-3.7A3.69,3.69,0,0,1,236.53,102.44Z" style="fill: rgb(88, 221, 127); transform-origin: 236.536px 102.495px;" id="el6us64ut9e2s" class="animable"></path><polygon points="253.53 341.41 253.44 331.04 245.09 324.89 265.51 325.15 253.53 341.41" style="fill: rgb(55, 71, 79); transform-origin: 255.3px 333.15px;" id="elp831ti0w1hr" class="animable"></polygon><path d="M222,419.84l-22-37,1.58-.15A32,32,0,0,0,222,370.59c8.09-10.67.92-25.85.85-26l-.45-.91,32.47-14.84.83,1.82-30.63,14c1.52,3.64,6.25,17-1.48,27.15a33.78,33.78,0,0,1-20.39,12.62l20.45,34.39Z" style="fill: rgb(55, 71, 79); transform-origin: 227.85px 374.34px;" id="elaf4fvwlzek9" class="animable"></path><path d="M229.57,408.18c-.34-3.38-2.67-6.74-6.76-6.74s-6.41,3.36-6.75,6.74c-.51,5.21,3,9.94,6.75,14.25C226.57,418.12,230.09,413.39,229.57,408.18Zm-6.76,3.75a3.7,3.7,0,1,1,3.71-3.7A3.69,3.69,0,0,1,222.81,411.93Z" style="fill: rgb(88, 221, 127); transform-origin: 222.816px 411.935px;" id="elmvdlmjxo6e" class="animable"></path></g><g id="freepik--character-2--inject-277" class="animable animator-active" style="transform-origin: 310.739px 288.601px;"><path d="M374.87,288.49a29.68,29.68,0,0,1-52,19.58H265.19L257.12,323l-8.07-14.93h-7.37V268.91h81.2a29.69,29.69,0,0,1,52,19.59Z" style="fill: rgb(255, 255, 255); transform-origin: 308.28px 290.905px;" id="el4jfjnebrbqu" class="animable"></path><path d="M374.87,288.49a33.22,33.22,0,0,1-1.32,8.86,31.77,31.77,0,0,1-3.92,8,29.88,29.88,0,0,1-14,10.94,22.32,22.32,0,0,1-2.13.74l-2.18.56c-.73.15-1.48.24-2.22.37a16.81,16.81,0,0,1-2.24.21,28.38,28.38,0,0,1-8.95-.79,29.89,29.89,0,0,1-15.22-9.23l.15.07-57.69.16.31-.19-8,14.95-.35.66-.35-.66-8.11-14.91.39.24-7.37,0h-.47v-.47c0-6.53,0-13.05,0-19.58l.06-19.58v-.42h.42l81.2.22-.2.2h0v-.07l.05-.06A29.86,29.86,0,0,1,338,259.56a28.4,28.4,0,0,1,8.95-.79,16.81,16.81,0,0,1,2.24.21c.74.13,1.49.22,2.22.37l2.18.56a22.32,22.32,0,0,1,2.13.74,29.85,29.85,0,0,1,14,10.93,32.28,32.28,0,0,1,3.92,8.05A33.22,33.22,0,0,1,374.87,288.49Zm0,0a33.06,33.06,0,0,0-1.37-8.84,31.64,31.64,0,0,0-4-8,29.64,29.64,0,0,0-13.94-10.81,19.36,19.36,0,0,0-2.11-.71l-2.17-.55c-.73-.15-1.48-.23-2.21-.35a15,15,0,0,0-2.23-.2,28.15,28.15,0,0,0-8.86.82A29.61,29.61,0,0,0,323,269l.05-.13h0v.2h-.2l-81.2.22.42-.42.06,19.58c0,6.53,0,13.05,0,19.58l-.47-.47,7.37,0h.27l.12.24,8,14.95h-.7l8.11-14.91.1-.19h.21l57.69.16H323l.06.07a29.45,29.45,0,0,0,15,9.2,27.84,27.84,0,0,0,8.86.83,15.15,15.15,0,0,0,2.23-.2c.73-.11,1.48-.2,2.21-.34l2.16-.56a18.83,18.83,0,0,0,2.12-.71,29.67,29.67,0,0,0,13.95-10.81,31.85,31.85,0,0,0,3.95-8A33.06,33.06,0,0,0,374.87,288.49Z" style="fill: rgb(38, 50, 56); transform-origin: 308.035px 291.249px;" id="el9tfy6yn3lgo" class="animable"></path><g id="el4vnk0ito8zu"><circle cx="345.19" cy="288.49" r="25.9" style="fill: rgb(88, 221, 127); transform-origin: 345.19px 288.49px; transform: rotate(-28.33deg);" class="animable"></circle></g><path d="M352.6,296.88h0" style="fill: rgb(88, 221, 127); transform-origin: 352.6px 296.88px;" id="ela1hz1e8k727" class="animable"></path><path d="M371,288.55a25.71,25.71,0,0,1-7.85,18.55,5.49,5.49,0,0,1-.43.4,25.92,25.92,0,0,1-17.55,6.89,23.73,23.73,0,0,1-3.5-.26,19.58,19.58,0,0,1-2.29-.4l-.27-.06A25.83,25.83,0,1,1,371,288.55Z" style="fill: none; transform-origin: 345.17px 288.56px;" id="elbi0qtr4umb9" class="animable"></path><path d="M263.58,284.74c-.34-3.38-2.67-6.74-6.76-6.74s-6.41,3.36-6.75,6.74c-.51,5.21,3,9.94,6.75,14.25C260.58,294.68,264.1,290,263.58,284.74Zm-6.76,3.75a3.7,3.7,0,1,1,3.71-3.7A3.69,3.69,0,0,1,256.82,288.49Z" style="fill: rgb(88, 221, 127); transform-origin: 256.826px 288.495px;" id="elz4fa15ks1i" class="animable"></path><rect x="270.95" y="281.1" width="40.92" height="1.23" style="fill: rgb(166, 166, 166); transform-origin: 291.41px 281.715px;" id="el5ed0tcp1p2v" class="animable"></rect><rect x="270.95" y="284.52" width="34.49" height="1.23" style="fill: rgb(166, 166, 166); transform-origin: 288.195px 285.135px;" id="el7py9veyaw4f" class="animable"></rect><rect x="270.95" y="287.94" width="38.9" height="1.23" style="fill: rgb(166, 166, 166); transform-origin: 290.4px 288.555px;" id="el1u4k2ykacti" class="animable"></rect><rect x="270.95" y="291.36" width="23.23" height="1.23" style="fill: rgb(166, 166, 166); transform-origin: 282.565px 291.975px;" id="elzn2knnq5mzh" class="animable"></rect><path d="M362.73,307.5a25.92,25.92,0,0,1-17.55,6.89,23.73,23.73,0,0,1-3.5-.26,19.58,19.58,0,0,1-2.29-.4,62.55,62.55,0,0,1,3.5-8.84h0c.11-.24.25-.47.36-.67a9.93,9.93,0,0,1,.59-.87c1-1.24,3.5-1.85,6.23-1.9a23.26,23.26,0,0,1,3.55.19,16.73,16.73,0,0,1,2.79.58l.17.05.1,0,.65.24.57.26a.13.13,0,0,1,.07,0,4.22,4.22,0,0,1,.89.55c.18.15.38.32.57.5A25,25,0,0,1,362.73,307.5Z" style="fill: rgb(235, 235, 235); transform-origin: 351.06px 307.917px;" id="ely1c0wo384k" class="animable"></path><path d="M363.16,307.1a5.49,5.49,0,0,1-.43.4A25.37,25.37,0,0,1,356,312c.74-5,1.31-8.87,1.39-9.5a.42.42,0,0,0,0-.1,6.26,6.26,0,0,1,.55.36.13.13,0,0,1,.07,0c.35.23.85.58,1.46,1.05A35.38,35.38,0,0,1,363.16,307.1Z" style="fill: rgb(55, 71, 79); transform-origin: 359.58px 307.2px;" id="elywt2tixwmqm" class="animable"></path><path d="M343.46,303l-.19,1.21c0,.3-.11.65-.16,1s-.1.62-.17,1c-.32,2-.77,4.85-1.26,7.91a19.58,19.58,0,0,1-2.29-.4l-.27-.06a63.46,63.46,0,0,1,3.7-9.7A9.07,9.07,0,0,1,343.46,303Z" style="fill: rgb(55, 71, 79); transform-origin: 341.29px 308.56px;" id="elrvpyspwgfdi" class="animable"></path><path d="M346.51,311.91c3,.34,8.64-3.81,10.21-8.21.11-.3-.78-3.16-1.69-6.69-.55-2.14-1.11-4.54-1.46-6.76-.07-.46-13.42,5.59-13.42,5.59a36,36,0,0,1,2.7,8.33,5,5,0,0,1,0,.93v.15C342.9,307,343.32,311.54,346.51,311.91Z" style="fill: rgb(211, 118, 106); transform-origin: 348.44px 301.077px;" id="eldc3313j2z2" class="animable"></path><path d="M342.9,305.1a.76.76,0,0,0,0,.15,9.8,9.8,0,0,0,1.44-.15c8.18-1.48,8.72-12.1,8.72-14.77-2.42.75-12.92,5.51-12.92,5.51a35.93,35.93,0,0,1,2.7,8.34A5.86,5.86,0,0,1,342.9,305.1Z" style="fill: rgb(38, 50, 56); transform-origin: 346.6px 297.79px;" id="el8gwu86ti7br" class="animable"></path><path d="M353.42,272.52c2.14,4.78,1.32,19.46-1.81,23.11-4.54,5.28-12.87,6.78-17.59,1.12-4.57-5.49-3.17-24.61.41-28C339.71,263.72,350.25,265.46,353.42,272.52Z" style="fill: rgb(211, 118, 106); transform-origin: 342.872px 283.109px;" id="elsbgmidcx6im" class="animable"></path><path d="M343.25,282.88s.07.05.07.09c-.08,1,0,2.13.87,2.5,0,0,0,.07,0,.06C343.09,285.32,343,283.8,343.25,282.88Z" style="fill: rgb(38, 50, 56); transform-origin: 343.662px 284.205px;" id="el7tbudmv8w7r" class="animable"></path><path d="M344.18,281.89c1.6,0,1.56,3.16.08,3.19S342.84,281.92,344.18,281.89Z" style="fill: rgb(38, 50, 56); transform-origin: 344.269px 283.485px;" id="elsuca7ojz5en" class="animable"></path><path d="M337.19,283s-.08,0-.08.09c0,1-.12,2.13-1,2.45,0,0,0,.06,0,.05C337.19,285.42,337.37,283.91,337.19,283Z" style="fill: rgb(38, 50, 56); transform-origin: 336.68px 284.296px;" id="elqc5esfazy9q" class="animable"></path><path d="M336.32,281.93c-1.6-.14-1.76,3.05-.28,3.18S337.65,282,336.32,281.93Z" style="fill: rgb(38, 50, 56); transform-origin: 336.129px 283.52px;" id="elihxdlhbz0tl" class="animable"></path><path d="M345.46,280.44a11.36,11.36,0,0,1-1.23-.45,2.11,2.11,0,0,1-1.17-.7.67.67,0,0,1,.12-.82,1.67,1.67,0,0,1,1.69-.15,2.54,2.54,0,0,1,1.41,1.08A.73.73,0,0,1,345.46,280.44Z" style="fill: rgb(38, 50, 56); transform-origin: 344.665px 279.309px;" id="el2fjolo8he21" class="animable"></path><path d="M335.1,280.3c.44-.07.84-.2,1.27-.31a2.16,2.16,0,0,0,1.24-.57.68.68,0,0,0,0-.83,1.66,1.66,0,0,0-1.66-.33,2.47,2.47,0,0,0-1.52.92A.72.72,0,0,0,335.1,280.3Z" style="fill: rgb(38, 50, 56); transform-origin: 336.029px 279.235px;" id="el4tuh1ye3ogq" class="animable"></path><path d="M343.35,292.08c-.24.23-.48.55-.84.57a2.47,2.47,0,0,1-1.06-.26,0,0,0,0,0,0,.05,1.32,1.32,0,0,0,1.25.55,1,1,0,0,0,.79-.86C343.46,292.07,343.39,292.05,343.35,292.08Z" style="fill: rgb(38, 50, 56); transform-origin: 342.47px 292.534px;" id="ela5rpr3cfjq" class="animable"></path><path d="M342.34,289.1a3.34,3.34,0,0,1-2.26,1.48,4.52,4.52,0,0,1-1.22,0,.85.85,0,0,1-.23,0l-.22,0c-.11,0-.17-.11-.19-.22h0a.38.38,0,0,1,0-.1h0v-.08c0-.77.08-1.93.08-1.93-.28.14-1.71.76-1.68.37a50.42,50.42,0,0,1,1.42-10.2.09.09,0,0,1,.18,0c-.1,3.18-.76,6.32-.91,9.5a6.31,6.31,0,0,1,1.6-.46c.11,0-.21,2.24-.18,2.58v0a4.69,4.69,0,0,0,3.5-1.05C342.33,289,342.4,289,342.34,289.1Z" style="fill: rgb(38, 50, 56); transform-origin: 339.491px 284.476px;" id="elhoj3niq5elc" class="animable"></path><path d="M339.32,290.24a4,4,0,0,0,1.58,1.26,1.86,1.86,0,0,0,1.1.08c.79-.2.82-.93.68-1.55a4.25,4.25,0,0,0-.34-.95A5.25,5.25,0,0,1,339.32,290.24Z" style="fill: rgb(38, 50, 56); transform-origin: 341.032px 290.354px;" id="el160zvq427jc" class="animable"></path><path d="M340.9,291.5a1.86,1.86,0,0,0,1.1.08c.79-.2.82-.93.68-1.55A1.87,1.87,0,0,0,340.9,291.5Z" style="fill: rgb(255, 154, 187); transform-origin: 341.822px 290.829px;" id="elj0rcx7tp45g" class="animable"></path><path d="M332.26,273.57c.56-1.25,1.2-2.51,2-2.75s2.31,2,4,2.13c2.32.18,3.88-2.41,7.13-2.61s5.2,3.73,5.25,10.35c0,5.92,3.61,6.51,3.61,6.51s2.3-13-1.34-17.38-12-6.35-17.75-2.29C333.07,269,332.26,273.57,332.26,273.57Z" style="fill: rgb(38, 50, 56); transform-origin: 343.613px 276.258px;" id="elxiw4mi3pdr" class="animable"></path><path d="M351.28,284.84s2.76-5,5-4.06.5,7.94-1.88,9.13a2.54,2.54,0,0,1-3.52-1Z" style="fill: rgb(211, 118, 106); transform-origin: 354.099px 285.459px;" id="ely100c4v99z" class="animable"></path><path d="M355.73,282.78s0,0,0,.06c-1.67.89-2.41,2.6-2.88,4.33a1.42,1.42,0,0,1,2.05-.6s0,.11,0,.1a1.55,1.55,0,0,0-1.65.72,7.22,7.22,0,0,0-.67,1.47c-.07.16-.36.11-.32-.08v0C352,286.53,353.37,283.25,355.73,282.78Z" style="fill: rgb(38, 50, 56); transform-origin: 353.979px 285.868px;" id="el7r95mj1owx" class="animable"></path></g><g id="freepik--character-1--inject-277" class="animable" style="transform-origin: 121.184px 285.727px;"><path d="M84.93,170.57c3.16,1.65,3.77,7.35,13.81,7,1.43,0,2.59-.61,3.91-.13,1.91.71,3.43,2.24,5.14,3.36a11.19,11.19,0,0,0,4.57,1.76,13.67,13.67,0,0,0,9-2.07c1.64-1,3-2.41,4.61-3.51s11.19-3.41,12.8-8.8c1-3.43.87-7.33-3.2-12.34a6.28,6.28,0,0,1-1.84-3.32,7.49,7.49,0,0,1,.75-3.22,6.28,6.28,0,0,0,.58-3.69,8.16,8.16,0,0,0-2.13-3.14c-1.5-1.81-1.22-4.44,0-7.67a9.51,9.51,0,0,0-1-8.3,19.68,19.68,0,0,0-3.47-3.76c-1.83-1.74-2.17-3.36-3-5.81-1.55-4.73-4-6.85-6.87-8.3-2.58-1.31-2.49-.81-5.27-.39a14.52,14.52,0,0,0-9.37-2c-3,.38-5.53,2.42-7.82,4.36-2,1.74-3.91,3.61-4,6.54-.06,1.69.35,3.36.27,5-.1,2.15-1.3,3.51-2.73,4.86a12.67,12.67,0,0,0-4.17,7c-.37,2.29,1.87,5.83-.76,9.22-2.33,3-6.42,6.42-7.49,10.19C73.94,165.16,81.89,169,84.93,170.57Z" style="fill: rgb(38, 50, 56); transform-origin: 107.875px 144.39px;" id="elzgmrjagkuwn" class="animable"></path><path d="M123.77,176.86c4.61-.69,11.69.17,14.14-5a7.88,7.88,0,0,0,2.88-6.59c-.14-2.72-1.73-5.08-3.48-7a17.44,17.44,0,0,1-2.93-3.58,23.46,23.46,0,0,1-.57-3.12,15.7,15.7,0,0,1,1.1-3.91s0-.05,0,0c-1,2.12-1.94,4.48-1,6.84a6.73,6.73,0,0,0,.48,1,18.76,18.76,0,0,0,1.37,3.6c1.52,3,2.9,5.73,2.7,9.24a8.52,8.52,0,0,1-.83,3.38,12.71,12.71,0,0,1-7.12,3.09c-.06,0-.07.12,0,.11a14.47,14.47,0,0,0,6.66-2.42c-2.68,3.83-8.89,3.32-13.39,4.2C123.63,176.73,123.68,176.88,123.77,176.86ZM138.26,171l0-.1a12.9,12.9,0,0,0-.58-8.55c-.73-1.79-1.82-3.4-2.54-5.2-.12-.31-.24-.63-.34-.94,1,1.4,2.42,2.57,3.42,3.94,2.2,3,2.84,6.55.8,9.78A9.87,9.87,0,0,1,138.26,171Z" style="fill: rgb(38, 50, 56); transform-origin: 132.245px 162.25px;" id="eluijbz7ym9ef" class="animable"></path><path d="M75,165c.06.1.2,0,.15-.09-2-3.38-1.4-6.85.16-9.95-.75,4.63.16,9.82,4.4,12.31.07,0,.13-.07.06-.11-4.38-2.63-5-8.62-3.86-13.3a26.63,26.63,0,0,1,3.39-4.45c2-2.16,4.52-4.3,6-7a6.32,6.32,0,0,1-2.48,3.9c-.08.06,0,.19.07.14a6.8,6.8,0,0,0,2.8-4,6.11,6.11,0,0,0,.11-1,9.4,9.4,0,0,0,.73-2.73s0,0,0,0a9.5,9.5,0,0,1-.69,2.44,19.86,19.86,0,0,0-1-4.27c-1.08-4,.94-6.39,3.43-8.54.2-.13.4-.26.61-.38a8.63,8.63,0,0,0,3.32-3.07c.17-.18.34-.36.5-.55,0,0,0,0,0,0s-.27.27-.4.4a5.88,5.88,0,0,0,.41-1.16s0,0,0,0a6.07,6.07,0,0,1-1.13,1.84c-1,.83-2.09,1.59-3.14,2.39-2,1.2-3.93,2.34-4.69,4.73s-.16,4.72,0,7c.28,3.58-1,6.57-4.26,8,0,0-.06.08,0,.06a6.28,6.28,0,0,0,.73-.25,12.64,12.64,0,0,0-4.41,5.78C73.53,156.65,72.57,161.19,75,165Zm8.35-20.14-1.1.85a6.72,6.72,0,0,0,1.2-2.06c.9-2.54.15-5.3.09-7.91A6.81,6.81,0,0,1,86,129.93a7.86,7.86,0,0,0-1.64,2.89c-.57,1.93,0,3.72.58,5.57a9.08,9.08,0,0,1,.43,3.62A16.41,16.41,0,0,1,83.35,144.84Zm-6.74,7a16.17,16.17,0,0,1,4.6-5.21l.38-.32c.52-.42,1-.84,1.54-1.27C81,147.45,78.41,149.54,76.61,151.88Z" style="fill: rgb(38, 50, 56); transform-origin: 83.144px 145.43px;" id="el0dcbbyy9sgn9" class="animable"></path><path d="M81.54,167.94s0,0,0,0S81.52,167.94,81.54,167.94Z" style="fill: rgb(38, 50, 56); transform-origin: 81.5356px 167.94px;" id="eltpos78k7ig" class="animable"></path><path d="M127.86,122.08a62.75,62.75,0,0,1,4.9,4.75,6.32,6.32,0,0,1,1.82,4.07,6.78,6.78,0,0,1-1.38,4.29c-.35.52-.69,1.05-1,1.59a6.56,6.56,0,0,0,.46,2.93c.75,1.77,2.42,2.86,3.2,4.65,1.25,2.9-.14,5.28-1.36,7.88,0,0,0,0,0,0,.88-2.12,2.12-4.22,1.44-6.62-.56-2-2-3-3.08-4.63a6.52,6.52,0,0,1-1.06-3.4c-1,2-1.3,4,.4,6.06.08.1,0,.23-.12.14-2.16-2.19-1.59-4.84-.27-7.15a12.92,12.92,0,0,1,.89-4c.06-.13.25,0,.22.1-.19,1-.44,2-.58,3l.22-.33c1.73-2.46,2.39-5.32.42-8-1.48-2-3.5-3.51-5.15-5.32A.05.05,0,0,1,127.86,122.08Z" style="fill: rgb(38, 50, 56); transform-origin: 132.09px 137.16px;" id="eln84saggao7m" class="animable"></path><path d="M184.85,465c-2.29.72-69.27-.73-71.71-2.36-.94-.61,4.79-64.05,4.79-64.05l42.48.81-4.83,42.44s24.71,11.71,27.22,13.79S187.15,464.28,184.85,465Z" style="fill: rgb(173, 99, 89); transform-origin: 149.468px 431.89px;" id="eloq5jqesm9s" class="animable"></path><path d="M184.85,465c-2.29.71-69.27-.73-71.71-2.37-.3-.18-.39-6.62.68-15,12.14,2,55.5,8.69,58.87,6.7,2.35-1.38.27-3.54-1.66-5,5.54,2.76,10.7,5.42,11.77,6.31C185.28,457.69,187.14,464.28,184.85,465Z" style="fill: rgb(38, 50, 56); transform-origin: 149.415px 456.408px;" id="eldwnfway25fa" class="animable"></path><path d="M156.78,431.66l-41.7-.59s8.26-99.88,7.91-101.8c-.43-2.46-30-118.47-30-118.47h39.8s31.38,108.13,32.51,118.55C167.1,346.17,156.78,431.66,156.78,431.66Z" style="fill: rgb(55, 71, 79); transform-origin: 129.25px 321.23px;" id="el2fo0imtld53" class="animable"></path><path d="M118.83,421.65c2.46-.17,5-.14,7.42-.18s4.95,0,7.42,0c5,.05,9.89.12,14.83.26,1.36,0,2.71.08,4.06.14s2.89.32,4.33.37c.11,0,.11.18,0,.18-1.22,0-2.43.19-3.65.22s-2.52.05-3.78.05c-2.47,0-5,0-7.42,0-4.94,0-9.89-.11-14.83-.31-2.79-.12-5.61-.15-8.39-.43A.13.13,0,0,1,118.83,421.65Z" style="fill: rgb(38, 50, 56); transform-origin: 137.824px 422.071px;" id="ellowtgonrelj" class="animable"></path><path d="M101.72,220.17c3.56,12.61,6.82,25.33,10,38s6.37,25.44,9.54,38.16L126,315.46c1.54,6.19,3.33,12.42,3.72,18.82s-.44,13.06-1,19.54-1.1,13-1.67,19.53c-1.14,13-2.23,26.06-3.65,39.06-.18,1.63-.35,3.26-.52,4.88,0,.14-.23.14-.22,0,.87-13,1.77-26.06,2.81-39.08q.78-9.76,1.59-19.54c.53-6.5,1.29-13,1.49-19.54s-1-12.88-2.58-19.23-3.12-12.45-4.68-18.68q-4.77-19.07-9.53-38.16c-3.53-14.24-7.06-28.52-10.18-42.86A.06.06,0,0,1,101.72,220.17Z" style="fill: rgb(38, 50, 56); transform-origin: 115.7px 318.754px;" id="elq6xj5c27ovl" class="animable"></path><path d="M93,210.8s12.69,49.77,21.57,84.81l16.94-84.81Z" style="fill: rgb(38, 50, 56); transform-origin: 112.255px 253.205px;" id="el9f8a50ua3e6" class="animable"></path><path d="M134.84,465.14c-2.3.72-69.27-.73-71.72-2.36-.94-.6,2.56-64.08,2.56-64.08l41.91.81-2,42.48s24.72,11.7,27.22,13.78S137.13,464.44,134.84,465.14Z" style="fill: rgb(173, 99, 89); transform-origin: 99.4239px 432.015px;" id="eleqvxxd46rdn" class="animable"></path><path d="M134.84,465.14c-2.29.72-69.28-.73-71.72-2.36-.3-.19-.23-6.46,0-15,12.14,2,56.17,8.7,59.54,6.71,2.36-1.38.27-3.55-1.65-5,5.53,2.76,10.69,5.41,11.76,6.3C135.26,457.84,137.13,464.44,134.84,465.14Z" style="fill: rgb(38, 50, 56); transform-origin: 99.3984px 456.555px;" id="elq1uas8hh1t" class="animable"></path><path d="M131.48,210.79s-1.16,19-5.7,34.05c-.37,1.24-.76,2.47-1.19,3.64a70.78,70.78,0,0,0-11.54,5.75s-2.87,72.79-2.82,77.31c.19,16.91-4.13,99.28-4.13,99.28l-42-.4s4.36-93.15,4.38-99.34c0-6,2.86-43.79,5.39-76.56,0,0-3.74-10.47-3.32-15.75,1-12.82,6.75-28,6.75-28Z" style="fill: rgb(55, 71, 79); transform-origin: 97.79px 320.795px;" id="eljh8ehf7je8" class="animable"></path><path d="M122.3,236.35c.15-1.06.31-2.11.47-3.16.3-1.93.69-3.85,1-5.77.77-4.36,1.57-8.74,2.54-13.06,0-.1.2-.08.19,0-.18,1.75-.38,3.49-.62,5.22s-.42,3.49-.67,5.23c-.48,3.44-1,6.89-1.55,10.32-.23,1.32-1,3.69.85,4.1,1.51.33,2.61-1.15,3.06-2.39a29.63,29.63,0,0,0,1-4.76c.31-1.74.58-3.49.83-5.23q.81-5.72,1.75-11.41c0-.1.19-.07.18,0a113.64,113.64,0,0,1-.84,11.66q-.36,2.79-.84,5.55a19.47,19.47,0,0,1-1.27,5.17,4.2,4.2,0,0,1-3.15,2.52h-.09a.11.11,0,0,1,.06.11c0,.61,0,1.24-.07,1.85s-.19,1.22-.31,1.82a11.19,11.19,0,0,1-.47,1.81,7.71,7.71,0,0,1-.33.84c-.14.28-.33.5-.49.76a.11.11,0,0,1-.21-.06h0c0-.1,0-.2,0-.3v-.06h0a4.89,4.89,0,0,1,0-.54c0-.3.12-.59.18-.88.13-.59.29-1.17.45-1.75s.28-1.17.43-1.75.35-1.19.49-1.79a.13.13,0,0,1,0-.06,2.73,2.73,0,0,1-2.65-1.66A4.69,4.69,0,0,1,122.3,236.35Z" style="fill: rgb(38, 50, 56); transform-origin: 126.72px 230.945px;" id="elrgh7vhlpell" class="animable"></path><path d="M109.65,255.68a32.5,32.5,0,0,1,3.95-2.61,41,41,0,0,1,4.51-2.34c3-1.32,6.18-2.22,9.32-3.26.09,0,.16.13.06.16-3,1.21-5.95,2.82-8.89,4.26-1.44.7-2.91,1.38-4.38,2s-2.94,1.41-4.46,2C109.65,255.93,109.56,255.75,109.65,255.68Z" style="fill: rgb(38, 50, 56); transform-origin: 118.576px 251.683px;" id="elxx7zn0j5gn" class="animable"></path><path d="M85.91,229.17a25.62,25.62,0,0,0,6.34-.86c1-.24,1.9-.55,2.83-.85a7.45,7.45,0,0,0,2.56-1.29c1.44-1.24,2.11-3.2,2.74-4.93a48,48,0,0,0,1.66-6c0-.1.17-.07.17,0a23.34,23.34,0,0,1-.86,6.8c-.52,1.88-1.21,4-2.73,5.3a10.74,10.74,0,0,1-5.81,2.12,26.64,26.64,0,0,1-6.91-.1A.11.11,0,0,1,85.91,229.17Z" style="fill: rgb(38, 50, 56); transform-origin: 94.0328px 222.407px;" id="eleej3ezk1ucu" class="animable"></path><path d="M65.91,422.27c2.46-.18,5-.15,7.42-.18s5,0,7.42,0q7.43.06,14.84.26c1.35,0,2.7.08,4,.14s2.89.31,4.33.37a.09.09,0,1,1,0,.17c-1.21,0-2.43.2-3.65.23s-2.52.05-3.78.05l-7.42,0c-4.94,0-9.89-.11-14.83-.32-2.79-.11-5.61-.15-8.39-.42A.13.13,0,0,1,65.91,422.27Z" style="fill: rgb(38, 50, 56); transform-origin: 84.8833px 422.693px;" id="elrwz32apnms" class="animable"></path><path d="M71,416.8h0a.5.5,0,0,1-.48-.53l9.49-163c-.12-.71-2.8-9.82-3-14.47-.25-4.91,4.84-24.07,5-24.89a.52.52,0,0,1,.63-.36.51.51,0,0,1,.36.63c0,.19-5.26,19.81-5,24.57s3,14.33,3,14.41-9.49,163.16-9.49,163.16A.52.52,0,0,1,71,416.8Z" style="fill: rgb(38, 50, 56); transform-origin: 76.7689px 315.167px;" id="eljxyeowfu8el" class="animable"></path><path d="M118.48,154C139,172.05,158,191.89,159.63,202.11c2.2,14.14-6.47,18.17-10.37,18.25-10.63.22-30.43-42.64-37.33-59C105.23,145.45,114,150,118.48,154Z" style="fill: rgb(88, 221, 127); transform-origin: 134.738px 185.268px;" id="elmqhyt1sfphh" class="animable"></path><path d="M132.53,210.79l-2.86-18s7.11-7.37,3.44-15.08c-1.86-3.91-14.51-23-21.26-27.76-6.33-4.49-13.84-.76-16.66,4.1-7.09,12.27-13.84,26.37-17.94,56.73Z" style="fill: rgb(88, 221, 127); transform-origin: 105.706px 179.361px;" id="elzmuljhvi6yf" class="animable"></path><path d="M121.23,190.49a58.46,58.46,0,0,0-8.51,1.57c-1.39.39-2.74.83-4.1,1.31-.67.24-1.35.45-2,.66a9.09,9.09,0,0,1-2.19.46.05.05,0,0,0,0,.1,14.89,14.89,0,0,0,2.11-.08,13.93,13.93,0,0,0,2-.42c1.41-.37,2.79-.82,4.2-1.21,2.83-.78,5.66-1.57,8.54-2.15A.12.12,0,0,0,121.23,190.49Z" style="fill: rgb(38, 50, 56); transform-origin: 112.879px 192.543px;" id="elrb3xk9htcu" class="animable"></path><path d="M128.4,192.9a61,61,0,0,0-7.15-.2c-1.19,0-2.37.14-3.56.28l-1.69.22c-.62.1-1.23.27-1.85.35-.06,0-.06.11,0,.11.59-.06,1.19,0,1.78,0l1.78-.09,3.57-.15c2.37-.13,4.74-.23,7.12-.28A.1.1,0,0,0,128.4,192.9Z" style="fill: rgb(38, 50, 56); transform-origin: 121.312px 193.166px;" id="elzvrwrwef4p9" class="animable"></path><path d="M94.47,152.21c-19.09,15-37.86,40.93-38,55.42-.13,14.31,4.85,12.93,6.27,12.83,8.64-.56,29-40.39,35.2-56.63S99.19,148.5,94.47,152.21Z" style="fill: rgb(88, 221, 127); transform-origin: 78.6562px 185.249px;" id="els5c07k15vr" class="animable"></path><path d="M74.23,209.28c1-1.8,2-3.58,3-5.4l3-5.42c2-3.61,4-7.22,5.87-10.87s3.87-7.26,5.76-10.92q1.43-2.74,2.77-5.52c.93-1.84,1.78-3.71,2.65-5.58A112.83,112.83,0,0,1,92.53,177c-1.75,3.74-3.66,7.4-5.57,11.05s-4,7.24-6.08,10.78S76.6,205.9,74.23,209.28Z" style="fill: rgb(38, 50, 56); transform-origin: 85.755px 187.425px;" id="el4nc6f4s32sv" class="animable"></path><path d="M95.24,170.37a16.52,16.52,0,0,1,1.18-1.87c.22-.3.42-.6.65-.88a11.11,11.11,0,0,1,.7-.87,5.71,5.71,0,0,1-.94,2A6.16,6.16,0,0,1,95.24,170.37Z" style="fill: rgb(38, 50, 56); transform-origin: 96.505px 168.56px;" id="eltcdcz0iw9nl" class="animable"></path><path d="M153.65,181.15c-1-6.71-3-16.08-5.44-18s-11.79-8.83-14.44-9.72-14.51-5.25-16.67-4c-1.72,1,.39,5.56,6,7.69a82.45,82.45,0,0,1,8.93,4.23c1.45.6,5,5.23,4,7.3-.54,1.22-4.07,2.69-6.28,1.72s-2.8-5.32-5.33-7.35-7-1.73-7.21-.53,1.23,1.75,3.54,5.79c1.49,2.6,1.65,8.88,5,13.34a76.76,76.76,0,0,1,4.65,8.23Z" style="fill: rgb(173, 99, 89); transform-origin: 135.083px 169.528px;" id="eld6az1evs12f" class="animable"></path><path d="M122.12,161.2a4.38,4.38,0,0,1-2.21-1,1.9,1.9,0,0,1-.51-.89,2.1,2.1,0,0,1,0-.56.86.86,0,0,1,.21-.54s0-.09,0,0a2.69,2.69,0,0,1-.2.27,1.19,1.19,0,0,0-.13.25,1.71,1.71,0,0,0-.09.55,1.87,1.87,0,0,0,.46,1.12,3,3,0,0,0,2.53.88S122.16,161.21,122.12,161.2Z" style="fill: rgb(38, 50, 56); transform-origin: 120.685px 159.737px;" id="elivt83xcy98f" class="animable"></path><path d="M148.21,163.13c-2.17-3.34-7.71-9.33-13.15-11.36-3.68-1.36-16.23,4.91-15.83,7.32s2.54,2.39,5.73,2c1.16-.15,7.28-2.43,8.34-1.15,1.53,1.84,3.51,8.15,3.51,8.15Z" style="fill: rgb(173, 99, 89); transform-origin: 133.715px 159.835px;" id="elc5p6b3ash8" class="animable"></path><path d="M119.53,158.14c1.53-2.59,4.94-4,8.34-5.13,0,0,.08.06,0,.08-.87.29-6.39,2.9-8.33,5.09C119.55,158.21,119.51,158.17,119.53,158.14Z" style="fill: rgb(38, 50, 56); transform-origin: 123.715px 155.6px;" id="el0t78ng1vsjyr" class="animable"></path><path d="M148.21,163.13c-2.17-3.34-7.71-9.33-13.15-11.36-3.68-1.36-13.57,6.6-13.18,9s3.49,2.56,6.9,1.34c1.1-.4,4.78-3.05,5.84-1.77,1.52,1.84,5.24,6.4,5.24,6.4Z" style="fill: rgb(173, 99, 89); transform-origin: 135.039px 159.177px;" id="elf7qwwol5e4o" class="animable"></path><path d="M137.71,163.92c-.34-.52-.46-.71-.82-1.23s-.73-1-1.12-1.52a4.74,4.74,0,0,0-1.14-1.18,2.36,2.36,0,0,0-1.52-.28,8.54,8.54,0,0,0-3.25,1.47,10.15,10.15,0,0,1-5.22,1.56,3.64,3.64,0,0,1-1.41-.37,2.25,2.25,0,0,1-.85-.66c-.79-1.31.16-2.82,1.14-3.89a22.57,22.57,0,0,1,6.68-4.66l1.77-.86a5.41,5.41,0,0,1,2.16-.64c1.24,0,3.28,1.22,3.92,1.59,0,0,.08-.05,0-.08-.76-.46-2.67-2-4.67-1.87a6.25,6.25,0,0,0-2.07.73c-.7.3-1.38.64-2.06,1a28.77,28.77,0,0,0-3.79,2.3,11.64,11.64,0,0,0-3.08,3,3.47,3.47,0,0,0-.18,3.57,3,3,0,0,0,2.26,1.17,6,6,0,0,0,1.58,0,24.7,24.7,0,0,0,3.41-1c1.08-.44,2.05-1.18,3.17-1.53a2.07,2.07,0,0,1,1.62.09,5.71,5.71,0,0,1,1.22,1.09,17,17,0,0,1,2,2.37C137.7,164.22,137.86,164.14,137.71,163.92Z" style="fill: rgb(38, 50, 56); transform-origin: 129.938px 157.722px;" id="ellgd7z9rp6n" class="animable"></path><path d="M149.83,166c-.8-1.59-2.2-8.16-3.49-10.16s-7.17-8.93-9.87-8.6c-3.4.41.21,6.51,2,9s1.55,6.81,1.55,6.81Z" style="fill: rgb(173, 99, 89); transform-origin: 142.447px 156.614px;" id="elfdxxu0wc00b" class="animable"></path><path d="M136,152.14a30.09,30.09,0,0,1,1.77,2.53,20.68,20.68,0,0,1,1.55,2.49A8.66,8.66,0,0,1,140,160c.05.48.07,1,.08,1.43s0,1,0,1.56c0,.05-.09.06-.09,0a22.78,22.78,0,0,0-.4-2.82,12.14,12.14,0,0,0-.88-2.8c-.82-1.77-2-3.35-2.83-5.12C135.81,152.13,135.91,152.08,136,152.14Z" style="fill: rgb(38, 50, 56); transform-origin: 137.97px 157.573px;" id="eljdgd6pflexq" class="animable"></path><path d="M140,163.83a9.83,9.83,0,0,1-.82,4.8,18.86,18.86,0,0,1-1.07,2.22,21.16,21.16,0,0,1-1.39,2,16.82,16.82,0,0,0-3.69,8.58,12.47,12.47,0,0,1,.55-4.84,14.62,14.62,0,0,1,2.34-4.33,22.75,22.75,0,0,0,2.51-4A14.34,14.34,0,0,0,140,163.83Z" style="fill: rgb(38, 50, 56); transform-origin: 136.509px 172.63px;" id="elzmt0c0nfv88" class="animable"></path><path d="M148.27,219.87c-6.64-.9-11-12-18.56-31.52-1.33-3.43,16-24.49,18.38-21.35,3,4,11,26,11.81,32C161.56,210.86,156,220.91,148.27,219.87Z" style="fill: rgb(173, 99, 89); transform-origin: 144.916px 193.313px;" id="eltcpfqv4or9r" class="animable"></path><path d="M133.72,199.24l21.39-20.79s6.08,17.89,5.51,25.39-3.18,16-12.21,16.52C141.65,220.71,133.72,199.24,133.72,199.24Z" style="fill: rgb(88, 221, 127); transform-origin: 147.189px 199.407px;" id="el77yrtn4rcgj" class="animable"></path><path d="M140.63,213.63c-.77-1.09-1.46-2.24-2.13-3.39s-1.29-2.34-1.9-3.53-1.15-2.4-1.65-3.65a23,23,0,0,1-1.23-3.82c.56,1.21,1.16,2.4,1.76,3.58l1.8,3.56c.58,1.19,1.17,2.38,1.73,3.59S140.13,212.39,140.63,213.63Z" style="fill: rgb(38, 50, 56); transform-origin: 137.175px 206.435px;" id="elfhgukstmx6v" class="animable"></path><path d="M138.32,202.87c1-1.14,2.18-2.2,3.28-3.28s2.22-2.14,3.35-3.19q3.39-3.17,6.82-6.26c.63-.56,1.26-1.13,1.9-1.68s1.44-1.1,2.11-1.69a.06.06,0,0,1,.08.08c-.55.52-1,1.13-1.56,1.67s-1.12,1.1-1.69,1.64l-3.36,3.18c-2.26,2.1-4.52,4.2-6.84,6.23-1.31,1.15-2.6,2.34-4,3.41A.08.08,0,0,1,138.32,202.87Z" style="fill: rgb(38, 50, 56); transform-origin: 147.09px 194.873px;" id="elnslewec81qo" class="animable"></path><path d="M99.24,149.91s3.88,9.87,5.16,11,12.17.5,12.41-.4-4.59-9.88-4.59-9.88a22.63,22.63,0,0,0-7.56-2.09A8.4,8.4,0,0,0,99.24,149.91Z" style="fill: rgb(173, 99, 89); transform-origin: 108.029px 155.011px;" id="el45zi0ckmwxq" class="animable"></path><path d="M100.15,150.56c.16,1.1,4.67,8.6,10.64,8.23,3.48-.21,1.11-7.14,1.11-7.14l3-9.47-11.46-8.76S100.09,150.1,100.15,150.56Z" style="fill: rgb(173, 99, 89); transform-origin: 107.525px 146.112px;" id="elbktq9la4pfr" class="animable"></path><path d="M102.22,139.65a19,19,0,0,0,9.85,11.48l2.84-8.95-11.46-8.76S102.89,136.24,102.22,139.65Z" style="fill: rgb(38, 50, 56); transform-origin: 108.565px 142.275px;" id="elxqde091v4x9" class="animable"></path><path d="M128.41,128.87c.34,16.28-9.37,18.32-12.88,18.39-3.19.07-14-.13-16.07-16.29s5.44-21.46,12.72-22S128.07,112.58,128.41,128.87Z" style="fill: rgb(173, 99, 89); transform-origin: 113.765px 128.096px;" id="elgmf3a9sft2i" class="animable"></path><path d="M124.59,127.56a11,11,0,0,1-1.08-.31,1.8,1.8,0,0,1-1-.53.59.59,0,0,1,.06-.71,1.44,1.44,0,0,1,1.43-.23,2.12,2.12,0,0,1,1.27.85A.62.62,0,0,1,124.59,127.56Z" style="fill: rgb(38, 50, 56); transform-origin: 123.892px 126.632px;" id="elujr8lgophv9" class="animable"></path><path d="M113.44,127.06a8.45,8.45,0,0,0,1.11-.15,1.81,1.81,0,0,0,1.11-.37.57.57,0,0,0,0-.7,1.43,1.43,0,0,0-1.39-.44A2.1,2.1,0,0,0,113,126,.62.62,0,0,0,113.44,127.06Z" style="fill: rgb(38, 50, 56); transform-origin: 114.298px 126.211px;" id="elw3aodznacgm" class="animable"></path><path d="M115.46,131.34s-.09,0-.09.09c0,1.11-.24,2.38-1.26,2.7a0,0,0,0,0,0,.06C115.35,134.08,115.61,132.4,115.46,131.34Z" style="fill: rgb(38, 50, 56); transform-origin: 114.804px 132.765px;" id="elpi51s0jo9m" class="animable"></path><path d="M114.53,130.13c-1.78-.22-2.1,3.34-.46,3.55S116,130.32,114.53,130.13Z" style="fill: rgb(38, 50, 56); transform-origin: 114.242px 131.905px;" id="elqjbzo3xz5m" class="animable"></path><path d="M113.81,130.26c-.33.17-.67.5-1,.5s-.73-.4-1-.78c0,0-.06,0-.07,0-.07.68.13,1.4.85,1.57s1.2-.41,1.43-1.08C114,130.39,113.94,130.19,113.81,130.26Z" style="fill: rgb(38, 50, 56); transform-origin: 112.873px 130.78px;" id="elu7n8sir0vn9" class="animable"></path><path d="M122.15,131.45s.08.06.08.11c-.15,1.1-.13,2.38.84,2.85,0,0,0,.07,0,.06C121.85,134.18,121.84,132.47,122.15,131.45Z" style="fill: rgb(38, 50, 56); transform-origin: 122.525px 132.96px;" id="el8fhyao3jtjx" class="animable"></path><path d="M123.25,130.4c1.79,0,1.58,3.61-.08,3.57S121.75,130.36,123.25,130.4Z" style="fill: rgb(38, 50, 56); transform-origin: 123.264px 132.185px;" id="elz5ltdzjkwin" class="animable"></path><path d="M124,130.68c.27.2.53.56.87.6s.7-.32,1-.67c0,0,.06,0,.05,0,0,.68-.28,1.38-1,1.47s-1-.52-1.13-1.21C123.76,130.78,123.87,130.59,124,130.68Z" style="fill: rgb(38, 50, 56); transform-origin: 124.853px 131.349px;" id="el3a6gignzdbo" class="animable"></path><path d="M115.44,139.86c.23.29.44.68.84.77a2.93,2.93,0,0,0,1.21-.12,0,0,0,0,1,0,.07,1.48,1.48,0,0,1-1.47.4,1.17,1.17,0,0,1-.73-1.09C115.32,139.83,115.41,139.81,115.44,139.86Z" style="fill: rgb(38, 50, 56); transform-origin: 116.39px 140.434px;" id="elsd9o1py6oqs" class="animable"></path><path d="M120.38,136.22s.09,1.67,0,2.45c0,.07-.19.09-.46.09,0,0,0,0,0,0a3.74,3.74,0,0,1-3.49-1.67c-.05-.08.06-.15.13-.1a5.56,5.56,0,0,0,3.3,1.24c.07-.21-.26-2.86-.14-2.86a7.19,7.19,0,0,1,1.74.54c-.11-3.48-.77-6.92-.82-10.39a.11.11,0,0,1,.21,0,57,57,0,0,1,1.36,11.15C122.23,137.09,120.68,136.38,120.38,136.22Z" style="fill: rgb(38, 50, 56); transform-origin: 119.314px 132.11px;" id="elngf079ps49a" class="animable"></path><path d="M119.46,138.3a4,4,0,0,1-1.64,1.18,1.79,1.79,0,0,1-1.1,0c-.78-.23-.78-1-.61-1.58a4.52,4.52,0,0,1,.39-.93A5.16,5.16,0,0,0,119.46,138.3Z" style="fill: rgb(38, 50, 56); transform-origin: 117.74px 138.268px;" id="el80tcu56a21t" class="animable"></path><path d="M117.82,139.48a1.79,1.79,0,0,1-1.1,0c-.78-.23-.78-1-.61-1.58A1.88,1.88,0,0,1,117.82,139.48Z" style="fill: rgb(255, 154, 187); transform-origin: 116.92px 138.733px;" id="elbwtwzrh4pcw" class="animable"></path><path d="M99.33,131.26c1.8,0,6.76-4.72,7.36-13.41,0,0-1.08,7.77-1.73,8.88s2.77-2.65,3.36-9.65a28.43,28.43,0,0,0,7,4.12c3.26,1.1,5.29,1.18,5.54,1s-4.55-2-5.78-3.61c0,0,8.59,4.57,12.63,5.1.47.06,1.55-9.57-4.51-14s-16.24-.54-19,1.9c0,0-3.17.28-6.83,4.74S97.38,131.27,99.33,131.26Z" style="fill: rgb(38, 50, 56); transform-origin: 111.953px 119.466px;" id="elely7ek2p5ld" class="animable"></path><path d="M108.55,116.19c0-.2-.32-.2-.31,0a22.76,22.76,0,0,1-1.79,9.27s.06.07.08,0C108,122.49,109,119.56,108.55,116.19Z" style="fill: rgb(38, 50, 56); transform-origin: 107.554px 120.766px;" id="eljsumjku0c4" class="animable"></path><path d="M119.57,122.61c-4.69-.81-8.67-2.51-11.63-6.36-.06-.08-.2,0-.14.08,2.38,4.16,7.15,6.07,11.75,6.46C119.64,122.8,119.67,122.63,119.57,122.61Z" style="fill: rgb(38, 50, 56); transform-origin: 113.709px 119.504px;" id="elmly0tqfo6ek" class="animable"></path><path d="M102.22,131.06s-3.21-5.31-5.6-4.19-.2,8.64,2.44,9.82a2.75,2.75,0,0,0,3.78-1.23Z" style="fill: rgb(173, 99, 89); transform-origin: 99.217px 131.866px;" id="el8ndkd17jdb4" class="animable"></path><path d="M97.3,129s0,.05,0,.07c1.85.89,2.73,2.71,3.31,4.58a1.52,1.52,0,0,0-2.25-.56s0,.11,0,.1a1.7,1.7,0,0,1,1.82.71,8.25,8.25,0,0,1,.79,1.57c.08.17.39.1.34-.1v0C101.53,132.93,99.88,129.42,97.3,129Z" style="fill: rgb(38, 50, 56); transform-origin: 99.3148px 132.283px;" id="elljcyda6y5ef" class="animable"></path><path d="M116.34,158.21l-9,27.93c-.36.81,0,1.52.83,1.57l14.65,1a2.36,2.36,0,0,0,2.13-1.38l9-27.92a1,1,0,0,0-.84-1.58l-14.65-1A2.39,2.39,0,0,0,116.34,158.21Z" style="fill: rgb(55, 71, 79); transform-origin: 120.668px 172.77px;" id="elh1gxi00bxot" class="animable"></path><path d="M118.08,158.31l-9,27.93c-.36.81,0,1.52.83,1.57l14.65,1a2.38,2.38,0,0,0,2.13-1.38l9-27.93a1,1,0,0,0-.83-1.57l-14.66-1A2.39,2.39,0,0,0,118.08,158.31Z" style="fill: rgb(69, 90, 100); transform-origin: 122.405px 172.87px;" id="elcr2slc1i1ad" class="animable"></path><path d="M122,159.87a1.24,1.24,0,1,1-1.13-1.35A1.24,1.24,0,0,1,122,159.87Z" style="fill: rgb(38, 50, 56); transform-origin: 120.765px 159.756px;" id="elfbhszwkwtie" class="animable"></path><path d="M60.75,220.43c6.4.88,14.37-4.09,35.05-19.19,2.87-2.08-6.44-26.25-9.62-24.17-4,2.61-18.92,13.61-19.91,14.55C57.92,199.57,56.41,219.84,60.75,220.43Z" style="fill: rgb(173, 99, 89); transform-origin: 77.3627px 198.735px;" id="el85bfrgz1xho" class="animable"></path><path d="M78.8,184.38s5.89-8.27,10.33-11.65A35.81,35.81,0,0,1,105,166.29c6.19-.91,21.81,1.17,22,5.77.16,4.17-15.69,1.24-15.69,1.24s16.66.32,15.94,5.37-18.93.6-18.93.6,17.11.72,15.54,5.81c-1.18,3.85-17.91.75-17.91.75s14.71.72,13.66,4.73c-1.16,4.43-16.77,2.54-16.77,2.54-4.38,9.74-10.66,12.49-15.22,14C86.56,207.47,78.8,184.38,78.8,184.38Z" style="fill: rgb(173, 99, 89); transform-origin: 103.036px 186.592px;" id="elkqoqepliejh" class="animable"></path><path d="M105.59,172.82c2,0,3.94-.08,5.9.06s3.91.35,5.84.67a33.69,33.69,0,0,1,7.4,2c-4.35-1.35-11.34-2-13.3-2.11s-3.89-.38-5.84-.52C105.54,172.89,105.55,172.82,105.59,172.82Z" style="fill: rgb(38, 50, 56); transform-origin: 115.143px 174.174px;" id="el4ikyyjupwjw" class="animable"></path><path d="M105,179.86c2.5.07,5,0,7.49.22s4.83.56,7.3.91c.19,0,.11.12-.08.1-2.48-.25-4.79-.29-7.28-.51s-5-.53-7.44-.66C104.91,179.92,104.92,179.86,105,179.86Z" style="fill: rgb(38, 50, 56); transform-origin: 112.417px 180.476px;" id="elaywrul66pxv" class="animable"></path><path d="M103.32,185.81A56.38,56.38,0,0,1,114.75,187c.19,0,.07.15-.12.12-3.79-.47-6.76-.87-11.31-1.19C103.25,185.94,103.24,185.82,103.32,185.81Z" style="fill: rgb(38, 50, 56); transform-origin: 109.055px 186.467px;" id="eltqrgwv41im" class="animable"></path><path d="M78.8,181.09,87,210.79s-21.87,12.87-26.7,9.46-1.67-20.55,3.8-27.09C66.33,190.44,78.8,181.09,78.8,181.09Z" style="fill: rgb(88, 221, 127); transform-origin: 72.4604px 200.958px;" id="elr5t6rkxy2jj" class="animable"></path><path d="M79.07,182.08l-.32-1,.08,0c-2.07,1.69-4.14,3.36-6.18,5.06s-4.09,3.4-6,5.2a30.59,30.59,0,0,0-2.78,2.8,23.18,23.18,0,0,0-2.2,3.25A25.22,25.22,0,0,0,59,204.9a21,21,0,0,1,2.14-7.72,19.22,19.22,0,0,1,2.18-3.42,29.76,29.76,0,0,1,2.8-2.92c2-1.8,4-3.48,6.16-5.12s4.28-3.19,6.5-4.67l.06,0,0,.07Z" style="fill: rgb(38, 50, 56); transform-origin: 69.035px 192.975px;" id="el74jf7s3wvvq" class="animable"></path><path d="M74,188.46c.5,1.46.87,3,1.29,4.45s.81,3,1.19,4.47c.75,3,1.49,6,2.2,9,.19.82.38,1.65.56,2.47s.27,1.79.46,2.67a.05.05,0,1,1-.1,0c-.2-.73-.51-1.44-.72-2.16s-.43-1.52-.63-2.28c-.39-1.49-.78-3-1.16-4.48-.76-3-1.51-6-2.17-9-.38-1.71-.8-3.41-1.08-5.13A.08.08,0,0,1,74,188.46Z" style="fill: rgb(38, 50, 56); transform-origin: 76.7699px 199.978px;" id="elysgccneatl" class="animable"></path><path d="M87,210.79c.14.28.13,0,.1-.13s-.37-1.61-.68-2.51c0-.09-.17-.25-.12.07A24.12,24.12,0,0,0,87,210.79Z" style="fill: rgb(38, 50, 56); transform-origin: 86.7047px 209.47px;" id="elxsy7hqg692" class="animable"></path></g><defs>     <filter id="active" height="200%">         <feMorphology in="SourceAlpha" result="DILATED" operator="dilate" radius="2"></feMorphology>                <feFlood flood-color="#32DFEC" flood-opacity="1" result="PINK"></feFlood>        <feComposite in="PINK" in2="DILATED" operator="in" result="OUTLINE"></feComposite>        <feMerge>            <feMergeNode in="OUTLINE"></feMergeNode>            <feMergeNode in="SourceGraphic"></feMergeNode>        </feMerge>    </filter>    <filter id="hover" height="200%">        <feMorphology in="SourceAlpha" result="DILATED" operator="dilate" radius="2"></feMorphology>                <feFlood flood-color="#ff0000" flood-opacity="0.5" result="PINK"></feFlood>        <feComposite in="PINK" in2="DILATED" operator="in" result="OUTLINE"></feComposite>        <feMerge>            <feMergeNode in="OUTLINE"></feMergeNode>            <feMergeNode in="SourceGraphic"></feMergeNode>        </feMerge>            <feColorMatrix type="matrix" values="0   0   0   0   0                0   1   0   0   0                0   0   0   0   0                0   0   0   1   0 "></feColorMatrix>    </filter></defs></svg>